<?xml version="1.0" encoding="UTF-8"?><svg xmlns="http://www.w3.org/2000/svg" xmlns:xlink="http://www.w3.org/1999/xlink" viewBox="0 0 377.08 353.62"><defs><style>.cls-1{fill:#ecebeb;}.cls-2{fill:#e5e4e4;}.cls-3{fill:url(#New_Gradient_Swatch_12-5);}.cls-4{fill:#fff;}.cls-5{fill:#dbdbda;}.cls-6{fill:#d1d1d1;}.cls-7{fill:url(#New_Gradient_Swatch_12);}.cls-8{fill:#dfdede;}.cls-9{isolation:isolate;}.cls-10{fill:#f1f0ef;}.cls-11{fill:#eae9e8;}.cls-12{fill:#f3f3f2;}.cls-13{fill:#e8e8e7;}.cls-14{fill:#e6e5e5;}.cls-15{fill:#dedddd;}.cls-16{fill:#e4e3e2;}.cls-17{fill:url(#New_Gradient_Swatch_12-3);}.cls-18{fill:#eeeeed;}.cls-19{fill:#cfcfcf;}.cls-20{fill:#d7d7d6;}.cls-21{fill:#fbfafa;}.cls-22{fill:#ebeae9;}.cls-23{fill:#f5f4f3;}.cls-24{fill:#d9d9d8;}.cls-25{fill:#f0efee;}.cls-26{fill:#f9f9f8;}.cls-27{fill:#d6d6d5;}.cls-28{fill:#f6f5f5;}.cls-29{fill:#d5d5d4;}.cls-30{fill:#f2f1f1;}.cls-31{fill:#fdfdfc;}.cls-32{fill:#d3d3d3;}.cls-33{fill:#d8d8d7;}.cls-34{fill:#dcdcdc;}.cls-35{fill:#e7e6e6;}.cls-36{fill:#e2e2e1;}.cls-37{fill:url(#New_Gradient_Swatch_12-4);}.cls-38{fill:url(#New_Gradient_Swatch_12-2);}.cls-39{fill:#ccc;}.cls-40{fill:#f7f7f7;}.cls-41{fill:#cecece;}.cls-42{fill:#e1e1e0;}.cls-43{fill:#edecec;}.cls-44{fill:#cdcdcd;}.cls-45{fill:#d2d2d2;}.cls-46{fill:#d0d0d0;}.cls-47{fill:#dadad9;}.cls-48{mix-blend-mode:multiply;}.cls-49{fill:#010101;}.cls-50{fill:#e0e0df;}</style><linearGradient id="New_Gradient_Swatch_12" x1="82.77" y1="409.96" x2="342.52" y2="559.93" gradientTransform="translate(-75.27 -307.16)" gradientUnits="userSpaceOnUse"><stop offset="0" stop-color="#e3e3e3"/><stop offset=".13" stop-color="#ededed"/><stop offset=".42" stop-color="#fff"/><stop offset="1" stop-color="#e6e6e5"/></linearGradient><linearGradient id="New_Gradient_Swatch_12-2" x1="81.99" y1="250.52" x2="341.72" y2="400.48" gradientTransform="translate(-91.85 -122.01) rotate(-8)" xlink:href="#New_Gradient_Swatch_12"/><linearGradient id="New_Gradient_Swatch_12-3" x1="59.76" y1="98.95" x2="319.5" y2="248.91" gradientTransform="matrix(1, 0, 0, 1, 0, 0)" xlink:href="#New_Gradient_Swatch_12"/><linearGradient id="New_Gradient_Swatch_12-4" x1="15.9" y1="-51.15" x2="275.64" y2="98.81" gradientTransform="translate(74.96 126.91) rotate(8)" xlink:href="#New_Gradient_Swatch_12"/><linearGradient id="New_Gradient_Swatch_12-5" x1="-45.71" y1="-187.46" x2="214.02" y2="-37.51" gradientTransform="translate(136.85 267.49) rotate(13)" xlink:href="#New_Gradient_Swatch_12"/></defs><g class="cls-9"><g id="Layer_1"><g id="A_royal_straight_flush_playing_cards_poker_hand_in_spades"><g><g class="cls-48"><path class="cls-4" d="M258.92,307.64l-153.76,45.08c-11.65,3.42-23.86-3.26-27.28-14.91L.89,75.26c-3.42-11.65,3.26-23.86,14.91-27.28L169.57,2.9c11.65-3.42,23.86,3.26,27.28,14.91l76.98,262.55c3.42,11.65-3.26,23.86-14.91,27.28Z"/><path class="cls-31" d="M258.11,307.06l-152.59,44.74c-11.64,3.41-23.84-3.26-27.26-14.9L1.69,75.72c-3.41-11.64,3.26-23.84,14.9-27.26L169.17,3.73c11.64-3.41,23.84,3.26,27.26,14.9l76.58,261.18c3.41,11.64-3.26,23.84-14.9,27.26Z"/><path class="cls-21" d="M257.3,306.49l-151.41,44.39c-11.63,3.41-23.82-3.25-27.23-14.88L2.48,76.19c-3.41-11.63,3.25-23.82,14.88-27.23L168.78,4.56c11.63-3.41,23.82,3.25,27.23,14.88l76.18,259.81c3.41,11.63-3.25,23.82-14.88,27.23Z"/><path class="cls-26" d="M256.49,305.91l-150.23,44.05c-11.62,3.41-23.8-3.25-27.21-14.87L3.28,76.65c-3.41-11.62,3.25-23.8,14.87-27.21L168.38,5.39c11.62-3.41,23.8,3.25,27.21,14.87l75.78,258.44c3.41,11.62-3.25,23.8-14.87,27.21Z"/><path class="cls-40" d="M255.69,305.34l-149.05,43.7c-11.61,3.4-23.78-3.25-27.18-14.86L4.08,77.11c-3.4-11.61,3.25-23.78,14.86-27.18L167.98,6.22c11.61-3.4,23.78,3.25,27.18,14.86l75.38,257.08c3.4,11.61-3.25,23.78-14.86,27.18Z"/><path class="cls-28" d="M254.88,304.77l-147.87,43.36c-11.6,3.4-23.76-3.24-27.16-14.84L4.87,77.57c-3.4-11.6,3.24-23.76,14.84-27.16L167.59,7.06c11.6-3.4,23.76,3.24,27.16,14.84l74.97,255.71c3.4,11.6-3.24,23.76-14.84,27.16Z"/><path class="cls-23" d="M254.07,304.19l-146.7,43.01c-11.59,3.4-23.74-3.24-27.13-14.83L5.67,78.03c-3.4-11.59,3.24-23.74,14.83-27.13L167.19,7.89c11.59-3.4,23.74,3.24,27.13,14.83l74.57,254.34c3.4,11.59-3.24,23.74-14.83,27.13Z"/><path class="cls-12" d="M253.26,303.62l-145.52,42.67c-11.58,3.39-23.72-3.24-27.11-14.82L6.46,78.5c-3.39-11.58,3.24-23.72,14.82-27.11L166.8,8.72c11.58-3.39,23.72,3.24,27.11,14.82l74.17,252.97c3.39,11.58-3.24,23.72-14.82,27.11Z"/><path class="cls-30" d="M252.45,303.04l-144.34,42.32c-11.57,3.39-23.69-3.24-27.09-14.8L7.26,78.96c-3.39-11.57,3.24-23.69,14.8-27.09L166.4,9.55c11.57-3.39,23.69,3.24,27.09,14.8l73.77,251.6c3.39,11.57-3.24,23.69-14.8,27.09Z"/><path class="cls-10" d="M251.65,302.47l-143.16,41.98c-11.56,3.39-23.67-3.23-27.06-14.79L8.05,79.42c-3.39-11.56,3.23-23.67,14.79-27.06L166.01,10.38c11.56-3.39,23.67,3.23,27.06,14.79l73.37,250.24c3.39,11.56-3.23,23.67-14.79,27.06Z"/><path class="cls-25" d="M250.84,301.9l-141.98,41.63c-11.55,3.39-23.65-3.23-27.04-14.78L8.85,79.88c-3.39-11.55,3.23-23.65,14.78-27.04L165.61,11.22c11.55-3.39,23.65,3.23,27.04,14.78l72.97,248.87c3.39,11.55-3.23,23.65-14.78,27.04Z"/><path class="cls-18" d="M250.03,301.32l-140.81,41.29c-11.54,3.38-23.63-3.23-27.01-14.76L9.64,80.34c-3.38-11.54,3.23-23.63,14.76-27.01L165.21,12.05c11.54-3.38,23.63,3.23,27.01,14.76l72.57,247.5c3.38,11.54-3.23,23.63-14.76,27.01Z"/><path class="cls-43" d="M249.22,300.75l-139.63,40.94c-11.53,3.38-23.61-3.22-26.99-14.75L10.44,80.81c-3.38-11.53,3.22-23.61,14.75-26.99L164.82,12.88c11.53-3.38,23.61,3.22,26.99,14.75l72.17,246.13c3.38,11.53-3.22,23.61-14.75,26.99Z"/><path class="cls-1" d="M248.42,300.18l-138.45,40.59c-11.52,3.38-23.59-3.22-26.96-14.74L11.24,81.27c-3.38-11.52,3.22-23.59,14.74-26.96L164.42,13.71c11.52-3.38,23.59,3.22,26.96,14.74l71.77,244.76c3.38,11.52-3.22,23.59-14.74,26.96Z"/><path class="cls-22" d="M247.61,299.6l-137.27,40.25c-11.5,3.37-23.57-3.22-26.94-14.72L12.03,81.73c-3.37-11.5,3.22-23.57,14.72-26.94L164.03,14.54c11.5-3.37,23.57,3.22,26.94,14.72l71.36,243.4c3.37,11.5-3.22,23.57-14.72,26.94Z"/><path class="cls-11" d="M246.8,299.03l-136.09,39.9c-11.49,3.37-23.54-3.22-26.92-14.71L12.83,82.19c-3.37-11.49,3.22-23.54,14.71-26.91L163.63,15.37c11.49-3.37,23.54,3.22,26.91,14.71l70.96,242.03c3.37,11.49-3.22,23.54-14.71,26.91Z"/><path class="cls-13" d="M245.99,298.45l-134.92,39.56c-11.48,3.37-23.52-3.21-26.89-14.7L13.62,82.65c-3.37-11.48,3.21-23.52,14.7-26.89L163.24,16.21c11.48-3.37,23.52,3.21,26.89,14.7l70.56,240.66c3.37,11.48-3.21,23.52-14.7,26.89Z"/><path class="cls-35" d="M245.18,297.88l-133.74,39.21c-11.47,3.36-23.5-3.21-26.87-14.68L14.42,83.12c-3.36-11.47,3.21-23.5,14.68-26.87L162.84,17.04c11.47-3.36,23.5,3.21,26.87,14.68l70.16,239.29c3.36,11.47-3.21,23.5-14.68,26.87Z"/><path class="cls-14" d="M244.38,297.31l-132.56,38.87c-11.46,3.36-23.48-3.21-26.84-14.67L15.21,83.58c-3.36-11.46,3.21-23.48,14.67-26.84L162.44,17.87c11.46-3.36,23.48,3.21,26.84,14.67l69.76,237.92c3.36,11.46-3.21,23.48-14.67,26.84Z"/><path class="cls-2" d="M243.57,296.73l-131.38,38.52c-11.45,3.36-23.46-3.2-26.82-14.66L16.01,84.04c-3.36-11.45,3.2-23.46,14.66-26.82L162.05,18.7c11.45-3.36,23.46,3.2,26.82,14.66l69.36,236.56c3.36,11.45-3.2,23.46-14.66,26.82Z"/><path class="cls-16" d="M242.76,296.16l-130.2,38.18c-11.44,3.35-23.44-3.2-26.79-14.64L16.8,84.5c-3.35-11.44,3.2-23.44,14.64-26.79L161.65,19.53c11.44-3.35,23.44,3.2,26.79,14.64l68.96,235.19c3.35,11.44-3.2,23.44-14.64,26.79Z"/><path class="cls-36" d="M241.95,295.58l-129.03,37.83c-11.43,3.35-23.42-3.2-26.77-14.63L17.6,84.96c-3.35-11.43,3.2-23.42,14.63-26.77L161.26,20.36c11.43-3.35,23.42,3.2,26.77,14.63l68.56,233.82c3.35,11.43-3.2,23.42-14.63,26.77Z"/><path class="cls-42" d="M241.14,295.01l-127.85,37.49c-11.42,3.35-23.4-3.2-26.74-14.62L18.4,85.43c-3.35-11.42,3.2-23.4,14.62-26.74L160.86,21.2c11.42-3.35,23.4,3.2,26.74,14.62l68.16,232.45c3.35,11.42-3.2,23.4-14.62,26.74Z"/><path class="cls-50" d="M240.34,294.44l-126.67,37.14c-11.41,3.35-23.37-3.19-26.72-14.6L19.19,85.89c-3.35-11.41,3.19-23.37,14.6-26.72L160.46,22.03c11.41-3.35,23.37,3.19,26.72,14.6l67.76,231.09c3.35,11.41-3.19,23.37-14.6,26.72Z"/><path class="cls-8" d="M239.53,293.86l-125.49,36.79c-11.4,3.34-23.35-3.19-26.7-14.59L19.99,86.35c-3.34-11.4,3.19-23.35,14.59-26.7L160.07,22.86c11.4-3.34,23.35,3.19,26.7,14.59l67.35,229.72c3.34,11.4-3.19,23.35-14.59,26.7Z"/><path class="cls-15" d="M238.72,293.29l-124.31,36.45c-11.39,3.34-23.33-3.19-26.67-14.58L20.78,86.81c-3.34-11.39,3.19-23.33,14.58-26.67L159.67,23.69c11.39-3.34,23.33,3.19,26.67,14.58l66.95,228.35c3.34,11.39-3.19,23.33-14.58,26.67Z"/><path class="cls-34" d="M237.91,292.71l-123.14,36.1c-11.38,3.34-23.31-3.18-26.65-14.56L21.58,87.27c-3.34-11.38,3.18-23.31,14.56-26.65L159.28,24.52c11.38-3.34,23.31,3.18,26.65,14.56l66.55,226.98c3.34,11.38-3.18,23.31-14.56,26.65Z"/><path class="cls-5" d="M237.1,292.14l-121.96,35.76c-11.37,3.33-23.29-3.18-26.62-14.55L22.37,87.74c-3.33-11.37,3.18-23.29,14.55-26.62L158.88,25.35c11.37-3.33,23.29,3.18,26.62,14.55l66.15,225.61c3.33,11.37-3.18,23.29-14.55,26.62Z"/><path class="cls-47" d="M236.3,291.57l-120.78,35.41c-11.36,3.33-23.27-3.18-26.6-14.54L23.17,88.2c-3.33-11.36,3.18-23.27,14.54-26.6L158.49,26.19c11.36-3.33,23.27,3.18,26.6,14.54l65.75,224.25c3.33,11.36-3.18,23.27-14.54,26.6Z"/><path class="cls-24" d="M235.49,290.99l-119.6,35.07c-11.35,3.33-23.25-3.18-26.57-14.52L23.96,88.66c-3.33-11.35,3.18-23.25,14.52-26.57L158.09,27.02c11.35-3.33,23.25,3.18,26.57,14.52l65.35,222.88c3.33,11.35-3.18,23.25-14.52,26.57Z"/><path class="cls-33" d="M234.68,290.42l-118.42,34.72c-11.34,3.32-23.23-3.17-26.55-14.51L24.76,89.12c-3.32-11.34,3.17-23.23,14.51-26.55L157.69,27.85c11.34-3.32,23.23,3.17,26.55,14.51l64.95,221.51c3.32,11.34-3.17,23.23-14.51,26.55Z"/><path class="cls-20" d="M233.87,289.84l-117.25,34.38c-11.33,3.32-23.2-3.17-26.53-14.5L25.55,89.58c-3.32-11.33,3.17-23.2,14.5-26.53L157.3,28.68c11.33-3.32,23.2,3.17,26.53,14.5l64.55,220.14c3.32,11.33-3.17,23.2-14.5,26.53Z"/><path class="cls-27" d="M233.07,289.27l-116.07,34.03c-11.32,3.32-23.18-3.17-26.5-14.48L26.35,90.05c-3.32-11.32,3.17-23.18,14.48-26.5L156.9,29.51c11.32-3.32,23.18,3.17,26.5,14.48l64.15,218.77c3.32,11.32-3.17,23.18-14.48,26.5Z"/><path class="cls-29" d="M232.26,288.7l-114.89,33.69c-11.31,3.32-23.16-3.16-26.48-14.47L27.15,90.51c-3.32-11.31,3.16-23.16,14.47-26.48L156.51,30.34c11.31-3.32,23.16,3.16,26.48,14.47l63.74,217.41c3.32,11.31-3.16,23.16-14.47,26.48Z"/><path class="cls-32" d="M231.45,288.12l-113.71,33.34c-11.3,3.31-23.14-3.16-26.45-14.46L27.94,90.97c-3.31-11.3,3.16-23.14,14.46-26.45L156.11,31.18c11.3-3.31,23.14,3.16,26.45,14.46l63.34,216.04c3.31,11.3-3.16,23.14-14.46,26.45Z"/><path class="cls-45" d="M230.64,287.55l-112.53,33c-11.29,3.31-23.12-3.16-26.43-14.44L28.74,91.43c-3.31-11.29,3.16-23.12,14.44-26.43l112.53-33c11.29-3.31,23.12,3.16,26.43,14.44l62.94,214.67c3.31,11.29-3.16,23.12-14.44,26.43Z"/><path class="cls-6" d="M229.83,286.98l-111.36,32.65c-11.28,3.31-23.1-3.15-26.4-14.43L29.53,91.89c-3.31-11.28,3.15-23.1,14.43-26.4l111.36-32.65c11.28-3.31,23.1,3.15,26.4,14.43l62.54,213.3c3.31,11.28-3.15,23.1-14.43,26.4Z"/><path class="cls-46" d="M229.03,286.4l-110.18,32.3c-11.27,3.3-23.08-3.15-26.38-14.42L30.33,92.36c-3.3-11.27,3.15-23.08,14.42-26.38l110.18-32.3c11.27-3.3,23.08,3.15,26.38,14.42l62.14,211.93c3.3,11.27-3.15,23.08-14.42,26.38Z"/><path class="cls-19" d="M228.22,285.83l-109,31.96c-11.26,3.3-23.05-3.15-26.35-14.4L31.12,92.82c-3.3-11.26,3.15-23.05,14.4-26.36l109-31.96c11.26-3.3,23.05,3.15,26.35,14.4l61.74,210.57c3.3,11.26-3.15,23.05-14.4,26.36Z"/><path class="cls-41" d="M227.41,285.25l-107.82,31.61c-11.24,3.3-23.03-3.15-26.33-14.39L31.92,93.28c-3.3-11.25,3.15-23.03,14.39-26.33l107.82-31.61c11.24-3.3,23.03,3.15,26.33,14.39l61.34,209.2c3.3,11.25-3.15,23.03-14.39,26.33Z"/><path class="cls-44" d="M226.6,284.68l-106.64,31.27c-11.23,3.29-23.01-3.14-26.31-14.38L32.71,93.74c-3.29-11.23,3.14-23.01,14.38-26.31l106.64-31.27c11.23-3.29,23.01,3.14,26.31,14.38l60.94,207.83c3.29,11.23-3.14,23.01-14.38,26.31Z"/><path class="cls-39" d="M225.79,284.11l-105.47,30.92c-11.22,3.29-22.99-3.14-26.28-14.36L33.51,94.2c-3.29-11.22,3.14-22.99,14.36-26.28l105.47-30.92c11.22-3.29,22.99,3.14,26.28,14.36l60.54,206.46c3.29,11.22-3.14,22.99-14.36,26.28Z"/></g><rect class="cls-7" x="43.88" y="30.72" width="186.96" height="294.17" rx="12.4" ry="12.4" transform="translate(-43.69 44.75) rotate(-16)"/><g><path class="cls-49" d="M125.41,214.97c8.84-2.53,15.26-10.46,16.4-21.66,6.9,8.89,16.55,12.21,25.39,9.68,11.21-3.21,17.54-17,14.41-27.81-1.93-6.67-6.86-12.15-12.56-16.13-5.7-3.98-12.18-6.65-18.55-9.41-8.97-3.89-18.78-8.74-25.73-15.79-2.16,9.66-7.91,18.98-13.45,27.03-3.94,5.72-8.02,11.42-10.75,17.81-2.72,6.39-4,13.65-2.1,20.33,3.08,10.83,15.74,19.16,26.96,15.95Z"/><path class="cls-49" d="M141.52,192.31c1.06,10.99-2.66,24.95-8.71,34.23h.59c3.97-3.99,9.23-7.15,15.37-8.91,6.08-1.74,12.17-1.86,17.6-.63l.54-.32c-10.01-4.69-20.5-14.52-25.4-24.36Z"/></g><g><path class="cls-49" d="M37.98,126.44c3.01-.86,5.2-3.56,5.59-7.38,2.35,3.03,5.64,4.16,8.65,3.3,3.82-1.1,5.97-5.79,4.91-9.47-.66-2.27-2.34-4.14-4.28-5.49-1.94-1.36-4.15-2.26-6.32-3.21-3.06-1.33-6.4-2.98-8.77-5.38-.74,3.29-2.7,6.47-4.58,9.21-1.34,1.95-2.73,3.89-3.66,6.07-.93,2.18-1.36,4.65-.72,6.93,1.05,3.69,5.36,6.53,9.18,5.43Z"/><path class="cls-49" d="M43.47,118.72c.36,3.74-.91,8.5-2.97,11.66h.2c1.35-1.36,3.15-2.44,5.24-3.04,2.07-.59,4.14-.63,6-.22l.19-.11c-3.41-1.6-6.98-4.95-8.65-8.3Z"/></g><g><path class="cls-49" d="M221.16,235.47c3.01-.86,6.3,.27,8.65,3.3,.39-3.81,2.58-6.52,5.59-7.38,3.82-1.1,8.13,1.74,9.18,5.43,.65,2.28,.21,4.75-.72,6.93-.93,2.18-2.32,4.12-3.66,6.07-1.89,2.74-3.85,5.92-4.58,9.21-2.37-2.4-5.71-4.05-8.77-5.38-2.17-.94-4.38-1.85-6.32-3.21-1.94-1.35-3.62-3.22-4.28-5.49-1.07-3.68,1.09-8.38,4.91-9.47Z"/><path class="cls-49" d="M229.91,239.11c-1.68-3.37-5.27-6.73-8.69-8.32l.17-.1c1.86,.43,3.96,.4,6.05-.2,2.07-.59,3.85-1.66,5.2-2.99h.22c-2.05,3.16-3.3,7.89-2.94,11.62Z"/></g><g><path class="cls-49" d="M28.71,88.84c.27,.93,.52,1.67,.74,2.22,.23,.54,.49,.95,.8,1.21,.3,.26,.67,.4,1.1,.41,.43,0,.97-.07,1.63-.23l.39,1.36-8.79,2.52-.39-1.36c.63-.21,1.12-.43,1.47-.67,.35-.24,.6-.55,.73-.91s.16-.82,.07-1.38c-.09-.56-.25-1.25-.49-2.09l-3.78-13.18c-.4-1.39-.73-2.54-1-3.44-.27-.91-.48-1.5-.61-1.77-.25-.5-.63-.74-1.14-.72-.51,.02-1.25,.16-2.21,.44l-.39-1.36c.92-.32,1.87-.76,2.83-1.34,.97-.57,1.86-1.2,2.68-1.88l6.36,22.19Z"/><path class="cls-49" d="M32.89,63.63c1.17-.33,2.38-.28,3.62,.16,1.25,.45,2.44,1.21,3.58,2.28,1.14,1.07,2.18,2.42,3.13,4.04,.95,1.62,1.72,3.45,2.3,5.48,.56,1.94,.85,3.82,.89,5.65,.04,1.83-.15,3.48-.55,4.96-.41,1.48-1.02,2.73-1.85,3.76-.82,1.03-1.82,1.71-2.99,2.04-1.17,.34-2.37,.29-3.62-.15-1.24-.43-2.43-1.17-3.56-2.21-1.13-1.04-2.16-2.34-3.1-3.91-.94-1.57-1.68-3.33-2.24-5.27-.58-2.03-.9-3.99-.95-5.87-.05-1.88,.12-3.57,.52-5.08,.39-1.51,1-2.79,1.83-3.83,.82-1.04,1.82-1.72,2.99-2.06Zm7.64,26.65c.75-.21,1.36-.6,1.83-1.15,.47-.55,.78-1.35,.93-2.4,.14-1.05,.1-2.39-.12-4.01-.23-1.62-.68-3.6-1.35-5.95-.7-2.44-1.39-4.45-2.08-6.01-.69-1.56-1.37-2.79-2.06-3.67-.69-.88-1.39-1.44-2.1-1.69-.71-.25-1.44-.27-2.19-.05-.75,.21-1.36,.62-1.83,1.2-.47,.59-.77,1.44-.89,2.55-.12,1.11-.05,2.51,.19,4.2,.25,1.69,.72,3.76,1.42,6.2,.67,2.35,1.34,4.26,2.01,5.76,.67,1.49,1.33,2.65,2,3.47,.67,.82,1.36,1.33,2.06,1.55,.7,.21,1.43,.21,2.18,0Z"/></g><g><path class="cls-49" d="M246.19,267.38c-.27-.93-.52-1.67-.74-2.22-.23-.54-.49-.95-.8-1.21-.3-.26-.67-.4-1.1-.41-.43,0-.97,.07-1.63,.23l-.39-1.36,8.79-2.52,.39,1.36c-.63,.21-1.12,.43-1.47,.67-.35,.24-.6,.55-.73,.91-.13,.36-.16,.82-.07,1.38,.09,.56,.25,1.25,.49,2.09l3.78,13.18c.4,1.39,.73,2.54,1,3.44,.27,.91,.48,1.5,.61,1.77,.25,.5,.63,.74,1.14,.72,.51-.02,1.25-.16,2.21-.44l.39,1.36c-.92,.32-1.87,.76-2.83,1.34-.97,.57-1.86,1.2-2.68,1.88l-6.36-22.19Z"/><path class="cls-49" d="M242.01,292.6c-1.17,.33-2.38,.28-3.62-.16-1.25-.45-2.44-1.21-3.58-2.28-1.14-1.07-2.18-2.42-3.13-4.04-.95-1.62-1.72-3.45-2.3-5.48-.56-1.94-.85-3.82-.89-5.65-.04-1.83,.15-3.48,.55-4.96,.41-1.48,1.02-2.73,1.85-3.76,.82-1.03,1.82-1.71,2.99-2.04,1.17-.34,2.37-.29,3.62,.15,1.24,.43,2.43,1.17,3.56,2.21,1.13,1.04,2.16,2.34,3.1,3.91,.94,1.57,1.68,3.33,2.24,5.27,.58,2.03,.9,3.99,.95,5.87,.05,1.88-.12,3.57-.52,5.08-.39,1.51-1,2.79-1.83,3.83-.82,1.04-1.82,1.72-2.98,2.06Zm-7.64-26.65c-.75,.21-1.36,.6-1.83,1.15-.47,.55-.78,1.35-.93,2.4-.14,1.05-.1,2.39,.12,4.01,.23,1.62,.68,3.6,1.35,5.95,.7,2.44,1.39,4.45,2.08,6.01,.69,1.56,1.37,2.79,2.06,3.67,.69,.88,1.39,1.44,2.1,1.69,.71,.25,1.44,.27,2.19,.05,.75-.21,1.36-.62,1.83-1.2,.47-.59,.77-1.44,.89-2.55,.12-1.11,.05-2.51-.19-4.2-.25-1.69-.72-3.76-1.42-6.2-.67-2.35-1.34-4.26-2.01-5.76-.67-1.49-1.33-2.65-2-3.47-.67-.82-1.36-1.33-2.06-1.55-.7-.21-1.43-.21-2.18,0Z"/></g></g><g><g class="cls-48"><path class="cls-4" d="M265.57,316.32l-158.54,23.25c-12.01,1.76-23.18-6.55-24.94-18.56L42.39,50.3c-1.76-12.01,6.55-23.18,18.56-24.94L219.5,2.12c12.01-1.76,23.18,6.55,24.94,18.56l39.69,270.71c1.76,12.01-6.55,23.18-18.56,24.94Z"/><path class="cls-31" d="M264.85,315.64l-157.33,23.07c-12,1.76-23.16-6.54-24.92-18.54L43.12,50.87c-1.76-12,6.54-23.16,18.54-24.92L218.99,2.88c12-1.76,23.16,6.54,24.92,18.55l39.48,269.3c1.76,12-6.54,23.16-18.54,24.92Z"/><path class="cls-21" d="M264.13,314.96l-156.11,22.89c-11.99,1.76-23.14-6.54-24.9-18.53L43.84,51.44c-1.76-11.99,6.54-23.14,18.53-24.89L218.48,3.65c11.99-1.76,23.14,6.54,24.9,18.53l39.28,267.89c1.76,11.99-6.54,23.14-18.53,24.89Z"/><path class="cls-26" d="M263.4,314.28l-154.9,22.71c-11.98,1.76-23.12-6.53-24.87-18.51L44.56,52.01c-1.76-11.98,6.53-23.12,18.51-24.87L217.97,4.42c11.98-1.76,23.12,6.53,24.87,18.51l39.07,266.47c1.76,11.98-6.53,23.12-18.51,24.87Z"/><path class="cls-40" d="M262.68,313.6l-153.68,22.53c-11.97,1.76-23.1-6.53-24.85-18.5L45.29,52.57c-1.76-11.97,6.53-23.1,18.5-24.85L217.47,5.19c11.97-1.75,23.1,6.53,24.85,18.5l38.86,265.06c1.75,11.97-6.53,23.1-18.5,24.85Z"/><path class="cls-28" d="M261.96,312.92l-152.47,22.36c-11.96,1.75-23.07-6.52-24.83-18.48L46.01,53.14c-1.75-11.96,6.52-23.07,18.48-24.83L216.96,5.96c11.96-1.75,23.07,6.52,24.83,18.48l38.66,263.65c1.75,11.96-6.52,23.07-18.48,24.83Z"/><path class="cls-23" d="M261.24,312.24l-151.25,22.18c-11.95,1.75-23.05-6.51-24.81-18.46L46.73,53.71c-1.75-11.95,6.51-23.05,18.46-24.81L216.45,6.73c11.95-1.75,23.05,6.51,24.81,18.46l38.45,262.24c1.75,11.95-6.51,23.05-18.46,24.81Z"/><path class="cls-12" d="M260.52,311.56l-150.04,22c-11.94,1.75-23.03-6.51-24.78-18.45L47.46,54.28c-1.75-11.94,6.51-23.03,18.45-24.78L215.94,7.5c11.94-1.75,23.03,6.51,24.78,18.45l38.24,260.83c1.75,11.94-6.51,23.03-18.45,24.78Z"/><path class="cls-30" d="M259.8,310.88l-148.83,21.82c-11.93,1.75-23.01-6.5-24.76-18.43L48.18,54.85c-1.75-11.93,6.5-23.01,18.43-24.76L215.43,8.26c11.93-1.75,23.01,6.5,24.76,18.43l38.04,259.42c1.75,11.93-6.5,23.01-18.43,24.76Z"/><path class="cls-10" d="M259.08,310.2l-147.61,21.64c-11.92,1.75-22.99-6.5-24.74-18.41L48.9,55.41c-1.75-11.92,6.5-22.99,18.41-24.74L214.93,9.03c11.92-1.75,22.99,6.5,24.74,18.41l37.83,258.01c1.75,11.92-6.5,22.99-18.41,24.74Z"/><path class="cls-25" d="M258.36,309.52l-146.4,21.46c-11.91,1.75-22.97-6.49-24.72-18.4L49.63,55.98c-1.75-11.91,6.49-22.97,18.4-24.72L214.42,9.8c11.91-1.75,22.97,6.49,24.72,18.4l37.62,256.6c1.75,11.91-6.49,22.97-18.4,24.72Z"/><path class="cls-18" d="M257.64,308.83l-145.18,21.29c-11.89,1.74-22.95-6.48-24.69-18.38L50.35,56.55c-1.74-11.89,6.48-22.95,18.38-24.69L213.91,10.57c11.89-1.74,22.95,6.48,24.69,18.38l37.42,255.19c1.74,11.89-6.48,22.95-18.38,24.69Z"/><path class="cls-43" d="M256.92,308.15l-143.97,21.11c-11.88,1.74-22.93-6.48-24.67-18.36L51.07,57.12c-1.74-11.88,6.48-22.93,18.36-24.67L213.4,11.34c11.88-1.74,22.93,6.48,24.67,18.36l37.21,253.78c1.74,11.88-6.48,22.93-18.36,24.67Z"/><path class="cls-1" d="M256.2,307.47l-142.75,20.93c-11.87,1.74-22.91-6.47-24.65-18.35L51.8,57.69c-1.74-11.87,6.47-22.91,18.35-24.65L212.9,12.11c11.87-1.74,22.91,6.47,24.65,18.35l37,252.37c1.74,11.87-6.47,22.91-18.35,24.65Z"/><path class="cls-22" d="M255.48,306.79l-141.54,20.75c-11.86,1.74-22.89-6.47-24.63-18.33L52.52,58.26c-1.74-11.86,6.47-22.89,18.33-24.63L212.39,12.87c11.86-1.74,22.89,6.47,24.63,18.33l36.8,250.96c1.74,11.86-6.47,22.89-18.33,24.63Z"/><path class="cls-11" d="M254.76,306.11l-140.32,20.57c-11.85,1.74-22.87-6.46-24.61-18.31L53.24,58.82c-1.74-11.85,6.46-22.87,18.31-24.61L211.88,13.64c11.85-1.74,22.87,6.46,24.61,18.31l36.59,249.55c1.74,11.85-6.46,22.87-18.31,24.61Z"/><path class="cls-13" d="M254.04,305.43l-139.11,20.4c-11.84,1.74-22.85-6.46-24.58-18.3L53.97,59.39c-1.74-11.84,6.46-22.85,18.3-24.58L211.37,14.41c11.84-1.74,22.85,6.46,24.58,18.3l36.38,248.14c1.74,11.84-6.46,22.85-18.3,24.58Z"/><path class="cls-35" d="M253.32,304.75l-137.89,20.22c-11.83,1.73-22.83-6.45-24.56-18.28L54.69,59.96c-1.73-11.83,6.45-22.83,18.28-24.56L210.87,15.18c11.83-1.73,22.83,6.45,24.56,18.28l36.18,246.73c1.73,11.83-6.45,22.83-18.28,24.56Z"/><path class="cls-14" d="M252.6,304.07l-136.68,20.04c-11.82,1.73-22.81-6.44-24.54-18.26L55.41,60.53c-1.73-11.82,6.44-22.81,18.26-24.54L210.36,15.95c11.82-1.73,22.81,6.44,24.54,18.26l35.97,245.32c1.73,11.82-6.44,22.81-18.26,24.54Z"/><path class="cls-2" d="M251.88,303.39l-135.46,19.86c-11.81,1.73-22.79-6.44-24.52-18.25L56.14,61.1c-1.73-11.81,6.44-22.79,18.25-24.52L209.85,16.72c11.81-1.73,22.79,6.44,24.52,18.25l35.76,243.91c1.73,11.81-6.44,22.79-18.25,24.52Z"/><path class="cls-16" d="M251.16,302.71l-134.25,19.68c-11.8,1.73-22.76-6.43-24.49-18.23L56.86,61.66c-1.73-11.8,6.43-22.76,18.23-24.49L209.34,17.49c11.8-1.73,22.76,6.43,24.49,18.23l35.56,242.5c1.73,11.8-6.43,22.76-18.23,24.49Z"/><path class="cls-36" d="M250.44,302.03l-133.04,19.51c-11.79,1.73-22.74-6.43-24.47-18.21L57.59,62.23c-1.73-11.79,6.43-22.74,18.21-24.47L208.83,18.25c11.79-1.73,22.74,6.43,24.47,18.21l35.35,241.09c1.73,11.79-6.43,22.74-18.21,24.47Z"/><rect class="cls-42" x="74.95" y="27.18" width="176.33" height="285.34" rx="21.55" ry="21.55" transform="translate(-22.91 25.46) rotate(-8.34)"/><rect class="cls-50" x="75.57" y="27.86" width="175.07" height="283.88" rx="21.53" ry="21.53" transform="translate(-22.91 25.46) rotate(-8.34)"/><rect class="cls-8" x="76.2" y="28.55" width="173.8" height="282.41" rx="21.51" ry="21.51" transform="translate(-22.9 25.46) rotate(-8.34)"/><path class="cls-15" d="M98.32,29.24H227.87c11.86,0,21.49,9.63,21.49,21.49v237.96c0,11.86-9.63,21.49-21.49,21.49H98.32c-11.86,0-21.49-9.63-21.49-21.49V50.73c0-11.86,9.63-21.49,21.49-21.49Z" transform="translate(-22.9 25.46) rotate(-8.34)"/><rect class="cls-34" x="77.45" y="29.93" width="171.27" height="279.48" rx="21.47" ry="21.47" transform="translate(-22.89 25.45) rotate(-8.34)"/><rect class="cls-5" x="78.08" y="30.61" width="170" height="278.02" rx="21.45" ry="21.45" transform="translate(-22.88 25.45) rotate(-8.34)"/><rect class="cls-47" x="78.71" y="31.3" width="168.73" height="276.55" rx="21.43" ry="21.43" transform="translate(-22.88 25.45) rotate(-8.34)"/><rect class="cls-24" x="79.33" y="31.99" width="167.47" height="275.09" rx="21.41" ry="21.41" transform="translate(-22.87 25.45) rotate(-8.34)"/><path class="cls-33" d="M101.36,32.68h123.41c11.81,0,21.39,9.59,21.39,21.39v230.83c0,11.81-9.59,21.39-21.39,21.39H101.36c-11.81,0-21.39-9.59-21.39-21.39V54.07c0-11.81,9.59-21.39,21.39-21.39Z" transform="translate(-22.86 25.45) rotate(-8.34)"/><rect class="cls-20" x="80.59" y="33.36" width="164.93" height="272.16" rx="21.37" ry="21.37" transform="translate(-22.86 25.45) rotate(-8.34)"/><rect class="cls-27" x="81.21" y="34.05" width="163.67" height="270.69" rx="21.36" ry="21.36" transform="translate(-22.85 25.45) rotate(-8.34)"/><path class="cls-29" d="M103.18,34.74h119.73c11.78,0,21.34,9.56,21.34,21.34v226.56c0,11.78-9.56,21.34-21.34,21.34H103.18c-11.78,0-21.34-9.56-21.34-21.34V56.07c0-11.78,9.56-21.34,21.34-21.34Z" transform="translate(-22.84 25.44) rotate(-8.34)"/><rect class="cls-32" x="82.47" y="35.42" width="161.13" height="267.76" rx="21.32" ry="21.32" transform="translate(-22.84 25.44) rotate(-8.34)"/><rect class="cls-45" x="83.1" y="36.11" width="159.86" height="266.3" rx="21.3" ry="21.3" transform="translate(-22.83 25.44) rotate(-8.34)"/><path class="cls-6" d="M239.64,291.82l-114.82,16.83c-11.63,1.7-22.43-6.34-24.14-17.97L68.44,70.76c-1.7-11.63,6.34-22.43,17.97-24.14l114.82-16.83c11.63-1.7,22.43,6.34,24.14,17.96l32.25,219.93c1.7,11.63-6.34,22.43-17.97,24.14Z"/><path class="cls-46" d="M238.92,291.13l-113.6,16.66c-11.62,1.7-22.41-6.33-24.12-17.95L69.16,71.32c-1.7-11.62,6.33-22.41,17.95-24.12l113.6-16.66c11.62-1.7,22.41,6.33,24.12,17.95l32.04,218.52c1.7,11.62-6.33,22.41-17.95,24.12Z"/><path class="cls-19" d="M238.2,290.45l-112.39,16.48c-11.6,1.7-22.39-6.33-24.09-17.93l-31.83-217.11c-1.7-11.61,6.33-22.39,17.93-24.09l112.39-16.48c11.61-1.7,22.39,6.33,24.09,17.93l31.83,217.11c1.7,11.61-6.33,22.39-17.93,24.09Z"/><path class="cls-41" d="M237.48,289.77l-111.17,16.3c-11.59,1.7-22.37-6.32-24.07-17.92l-31.63-215.7c-1.7-11.59,6.32-22.37,17.92-24.07l111.17-16.3c11.59-1.7,22.37,6.32,24.07,17.92l31.63,215.7c1.7,11.59-6.32,22.37-17.92,24.07Z"/><path class="cls-44" d="M236.76,289.09l-109.96,16.12c-11.58,1.7-22.35-6.32-24.05-17.9l-31.42-214.29c-1.7-11.58,6.32-22.35,17.9-24.05l109.96-16.12c11.58-1.7,22.35,6.32,24.05,17.9l31.42,214.29c1.7,11.58-6.32,22.35-17.9,24.05Z"/><path class="cls-39" d="M236.04,288.41l-108.74,15.94c-11.57,1.7-22.33-6.31-24.03-17.88l-31.21-212.88c-1.7-11.57,6.31-22.33,17.88-24.03l108.74-15.94c11.57-1.7,22.33,6.31,24.03,17.88l31.21,212.88c1.7,11.57-6.31,22.33-17.88,24.03Z"/></g><path class="cls-38" d="M264.02,305.21l-160.58,22.57c-6.78,.95-13.05-3.77-14-10.55L51.95,50.47c-.95-6.78,3.77-13.05,10.55-14L223.08,13.9c6.78-.95,13.05,3.77,14,10.55l37.49,266.76c.95,6.78-3.77,13.05-10.55,14Z"/><g><path class="cls-49" d="M146.25,205.98c9.11-1.28,16.57-8.24,19.25-19.17,5.59,9.77,14.69,14.4,23.79,13.12,11.55-1.62,19.73-14.39,18.14-25.53-.98-6.88-5.11-12.99-10.19-17.72-5.09-4.73-11.14-8.28-17.06-11.9-8.34-5.1-17.38-11.27-23.29-19.22-3.49,9.27-10.48,17.69-17.09,24.9-4.7,5.12-9.53,10.2-13.12,16.15-3.59,5.95-5.86,12.96-4.91,19.84,1.54,11.15,12.92,21.17,24.47,19.54Z"/><path class="cls-49" d="M165.36,185.78c-.48,11.03-6.1,24.33-13.38,32.68l.59,.07c4.49-3.38,10.14-5.78,16.46-6.67,6.27-.88,12.31-.15,17.52,1.82l.58-.24c-9.26-6.04-18.28-17.23-21.77-27.66Z"/></g><g><path class="cls-49" d="M72,106.14c3.1-.44,5.64-2.81,6.56-6.53,1.91,3.33,5,4.9,8.11,4.47,3.93-.55,6.72-4.9,6.18-8.7-.33-2.34-1.74-4.42-3.47-6.04-1.73-1.61-3.79-2.82-5.81-4.06-2.84-1.74-5.92-3.84-7.93-6.55-1.19,3.16-3.57,6.03-5.82,8.48-1.6,1.74-3.25,3.47-4.47,5.5-1.22,2.03-2,4.41-1.67,6.76,.52,3.8,4.4,7.21,8.34,6.66Z"/><path class="cls-49" d="M78.51,99.26c-.16,3.76-2.08,8.29-4.56,11.13l.2,.02c1.53-1.15,3.45-1.97,5.61-2.27,2.13-.3,4.19-.05,5.97,.62l.2-.08c-3.16-2.06-6.23-5.87-7.42-9.42Z"/></g><g><path class="cls-49" d="M238.22,239.6c3.1-.44,6.2,1.14,8.11,4.47,.91-3.72,3.46-6.09,6.56-6.53,3.93-.55,7.81,2.86,8.34,6.66,.32,2.34-.45,4.73-1.67,6.76-1.22,2.03-2.87,3.76-4.47,5.5-2.25,2.45-4.63,5.32-5.82,8.48-2.01-2.71-5.09-4.81-7.93-6.55-2.02-1.24-4.08-2.44-5.81-4.06-1.73-1.61-3.14-3.69-3.47-6.04-.54-3.8,2.24-8.15,6.18-8.7Z"/><path class="cls-49" d="M246.38,244.42c-1.19-3.57-4.28-7.4-7.45-9.45l.19-.08c1.79,.69,3.86,.94,6.02,.64,2.13-.3,4.04-1.11,5.57-2.24l.21,.02c-2.47,2.85-4.37,7.36-4.53,11.1Z"/></g><polygon class="cls-49" points="241.29 291.9 107.89 310.64 80.33 114.52 81.63 114.33 109.01 309.17 241.1 290.6 241.29 291.9"/><polygon class="cls-49" points="245.3 227.95 244 228.13 216.62 33.3 84.53 51.86 84.34 50.57 217.73 31.82 245.3 227.95"/><path class="cls-49" d="M72.07,48.99c-.1-.72-.23-1.3-.37-1.73-.15-.43-.37-.76-.66-.98-.29-.22-.69-.35-1.18-.37-.5-.03-1.14,0-1.92,.06l-.17-1.18,11.06-1.55,.17,1.18c-.77,.13-1.39,.28-1.85,.45-.46,.17-.8,.41-1.01,.71-.22,.31-.33,.7-.35,1.19-.02,.49,.03,1.12,.14,1.91l2.67,19.01c.37,2.6,0,4.68-1.09,6.23-1.09,1.55-2.88,2.49-5.35,2.84-1.67,.24-3.05,.15-4.14-.26-1.08-.41-1.69-1.06-1.82-1.97-.08-.54,.03-.97,.32-1.29,.29-.32,.72-.53,1.31-.61,.46-.06,.84-.02,1.15,.14,.31,.16,.68,.5,1.13,1.03,.51,.6,.93,1,1.26,1.2,.34,.2,.75,.26,1.23,.19,1-.14,1.7-.7,2.1-1.69,.41-.99,.49-2.31,.26-3.99l-2.88-20.5Z"/><path class="cls-49" d="M254.79,292.65c.1,.72,.23,1.3,.37,1.73,.15,.43,.37,.76,.66,.98,.29,.22,.69,.35,1.18,.37,.5,.03,1.14,0,1.92-.06l.17,1.18-11.06,1.55-.17-1.18c.77-.13,1.39-.28,1.85-.45,.46-.17,.8-.41,1.01-.71,.22-.31,.33-.7,.35-1.19,.02-.49-.03-1.12-.14-1.91l-2.67-19.01c-.37-2.6,0-4.68,1.09-6.23,1.09-1.55,2.88-2.49,5.35-2.84,1.67-.24,3.05-.15,4.14,.26,1.08,.41,1.69,1.06,1.82,1.97,.08,.54-.03,.97-.32,1.29-.29,.32-.72,.53-1.31,.61-.46,.06-.84,.02-1.15-.14-.31-.16-.68-.5-1.13-1.03-.51-.6-.93-1-1.26-1.2-.34-.2-.75-.26-1.23-.19-1,.14-1.7,.7-2.1,1.69-.41,.99-.49,2.31-.26,3.99l2.88,20.5Z"/></g><g><g class="cls-48"><path class="cls-4" d="M270.69,332.23l-160.23,.95c-12.14,.07-22.04-9.71-22.11-21.85l-1.63-273.6c-.07-12.14,9.71-22.04,21.85-22.11l160.23-.95c12.14-.07,22.04,9.71,22.11,21.85l1.63,273.6c.07,12.14-9.71,22.04-21.85,22.11Z"/><path class="cls-31" d="M270.07,331.46l-159.01,.95c-12.13,.07-22.02-9.7-22.09-21.83l-1.62-272.17c-.07-12.13,9.7-22.02,21.83-22.09l159.01-.95c12.13-.07,22.02,9.7,22.09,21.83l1.62,272.17c.07,12.13-9.7,22.02-21.83,22.09Z"/><path class="cls-21" d="M269.45,330.68l-157.78,.94c-12.12,.07-22-9.69-22.07-21.81l-1.61-270.74c-.07-12.12,9.69-22,21.81-22.07l157.78-.94c12.12-.07,22,9.69,22.07,21.81l1.61,270.74c.07,12.12-9.69,22-21.81,22.07Z"/><path class="cls-26" d="M268.84,329.91l-156.55,.93c-12.11,.07-21.98-9.69-22.05-21.79l-1.6-269.32c-.07-12.11,9.69-21.98,21.79-22.05l156.55-.93c12.11-.07,21.98,9.69,22.05,21.79l1.6,269.32c.07,12.11-9.69,21.98-21.79,22.05Z"/><path class="cls-40" d="M268.22,329.13l-155.32,.93c-12.1,.07-21.96-9.68-22.03-21.77l-1.6-267.89c-.07-12.1,9.68-21.96,21.77-22.03l155.32-.93c12.1-.07,21.96,9.68,22.03,21.77l1.6,267.89c.07,12.1-9.68,21.96-21.77,22.03Z"/><path class="cls-28" d="M267.6,328.36l-154.1,.92c-12.09,.07-21.94-9.67-22.02-21.75l-1.59-266.47c-.07-12.09,9.67-21.94,21.75-22.01l154.1-.92c12.09-.07,21.94,9.67,22.02,21.75l1.59,266.47c.07,12.09-9.67,21.94-21.75,22.01Z"/><path class="cls-23" d="M266.98,327.58l-152.87,.91c-12.08,.07-21.92-9.66-22-21.73l-1.58-265.04c-.07-12.08,9.66-21.92,21.73-22l152.87-.91c12.08-.07,21.92,9.66,22,21.73l1.58,265.04c.07,12.08-9.66,21.92-21.73,22Z"/><path class="cls-12" d="M266.36,326.81l-151.64,.9c-12.06,.07-21.9-9.65-21.98-21.72l-1.57-263.62c-.07-12.06,9.65-21.9,21.72-21.98l151.64-.9c12.07-.07,21.9,9.65,21.98,21.72l1.57,263.62c.07,12.06-9.65,21.9-21.72,21.98Z"/><path class="cls-30" d="M265.74,326.04l-150.41,.9c-12.05,.07-21.88-9.64-21.96-21.7l-1.56-262.19c-.07-12.05,9.64-21.88,21.7-21.96l150.41-.9c12.05-.07,21.88,9.64,21.96,21.7l1.56,262.19c.07,12.05-9.64,21.88-21.7,21.96Z"/><path class="cls-10" d="M265.13,325.26l-149.19,.89c-12.04,.07-21.86-9.63-21.94-21.68l-1.55-260.77c-.07-12.04,9.63-21.86,21.68-21.94l149.19-.89c12.04-.07,21.86,9.63,21.94,21.68l1.55,260.77c.07,12.04-9.63,21.86-21.68,21.94Z"/><path class="cls-25" d="M264.51,324.49l-147.96,.88c-12.03,.07-21.84-9.62-21.92-21.66l-1.54-259.34c-.07-12.03,9.62-21.84,21.66-21.92l147.96-.88c12.03-.07,21.84,9.62,21.92,21.66l1.55,259.34c.07,12.03-9.62,21.84-21.66,21.92Z"/><path class="cls-18" d="M263.89,323.71l-146.73,.87c-12.02,.07-21.82-9.62-21.9-21.64l-1.54-257.92c-.07-12.02,9.62-21.82,21.64-21.9l146.73-.87c12.02-.07,21.83,9.62,21.9,21.64l1.54,257.92c.07,12.02-9.62,21.82-21.64,21.9Z"/><path class="cls-43" d="M263.27,322.94l-145.5,.87c-12.01,.07-21.81-9.61-21.88-21.62l-1.53-256.49c-.07-12.01,9.61-21.81,21.62-21.88l145.5-.87c12.01-.07,21.81,9.61,21.88,21.62l1.53,256.49c.07,12.01-9.61,21.81-21.62,21.88Z"/><path class="cls-1" d="M262.65,322.16l-144.28,.86c-12,.07-21.79-9.6-21.86-21.6l-1.52-255.06c-.07-12,9.6-21.79,21.6-21.86l144.28-.86c12-.07,21.79,9.6,21.86,21.6l1.52,255.06c.07,12-9.6,21.79-21.6,21.86Z"/><path class="cls-22" d="M262.03,321.39l-143.05,.85c-11.99,.07-21.77-9.59-21.84-21.58l-1.51-253.64c-.07-11.99,9.59-21.77,21.58-21.84l143.05-.85c11.99-.07,21.77,9.59,21.84,21.58l1.51,253.64c.07,11.99-9.59,21.77-21.58,21.84Z"/><path class="cls-11" d="M261.42,320.62l-141.82,.85c-11.98,.07-21.75-9.58-21.82-21.56l-1.5-252.21c-.07-11.98,9.58-21.75,21.56-21.82l141.82-.84c11.98-.07,21.75,9.58,21.82,21.56l1.5,252.21c.07,11.98-9.58,21.75-21.56,21.82Z"/><path class="cls-13" d="M260.8,319.84l-140.59,.84c-11.97,.07-21.73-9.57-21.8-21.54l-1.49-250.79c-.07-11.97,9.57-21.73,21.54-21.8l140.59-.84c11.97-.07,21.73,9.57,21.8,21.54l1.49,250.79c.07,11.97-9.57,21.73-21.54,21.8Z"/><path class="cls-35" d="M260.18,319.07l-139.37,.83c-11.96,.07-21.71-9.56-21.78-21.52l-1.49-249.36c-.07-11.96,9.56-21.71,21.52-21.78l139.37-.83c11.96-.07,21.71,9.56,21.78,21.52l1.49,249.36c.07,11.96-9.56,21.71-21.52,21.78Z"/><path class="cls-14" d="M259.56,318.29l-138.14,.82c-11.95,.07-21.69-9.56-21.76-21.5l-1.48-247.94c-.07-11.95,9.56-21.69,21.5-21.76l138.14-.82c11.95-.07,21.69,9.56,21.76,21.5l1.48,247.94c.07,11.95-9.56,21.69-21.5,21.76Z"/><path class="cls-2" d="M258.94,317.52l-136.91,.82c-11.93,.07-21.67-9.55-21.74-21.48l-1.47-246.51c-.07-11.93,9.55-21.67,21.48-21.74l136.91-.82c11.93-.07,21.67,9.55,21.74,21.48l1.47,246.51c.07,11.93-9.55,21.67-21.48,21.74Z"/><path class="cls-16" d="M258.32,316.74l-135.68,.81c-11.92,.07-21.65-9.54-21.72-21.46l-1.46-245.09c-.07-11.92,9.54-21.65,21.46-21.72l135.68-.81c11.92-.07,21.65,9.54,21.72,21.46l1.46,245.09c.07,11.92-9.54,21.65-21.46,21.72Z"/><path class="cls-36" d="M257.7,315.97l-134.46,.8c-11.91,.07-21.63-9.53-21.7-21.44l-1.45-243.66c-.07-11.91,9.53-21.63,21.44-21.7l134.46-.8c11.91-.07,21.63,9.53,21.7,21.44l1.45,243.66c.07,11.91-9.53,21.63-21.44,21.7Z"/><path class="cls-42" d="M257.09,315.19l-133.23,.79c-11.9,.07-21.61-9.52-21.68-21.42l-1.44-242.23c-.07-11.9,9.52-21.61,21.42-21.68l133.23-.79c11.9-.07,21.61,9.52,21.68,21.42l1.44,242.23c.07,11.9-9.52,21.61-21.42,21.68Z"/><path class="cls-50" d="M256.47,314.42l-132,.79c-11.89,.07-21.59-9.51-21.66-21.4l-1.43-240.81c-.07-11.89,9.51-21.59,21.4-21.66l132-.79c11.89-.07,21.59,9.51,21.66,21.4l1.43,240.81c.07,11.89-9.51,21.59-21.4,21.66Z"/><path class="cls-8" d="M255.85,313.65l-130.77,.78c-11.88,.07-21.57-9.5-21.64-21.38l-1.43-239.38c-.07-11.88,9.5-21.57,21.38-21.64l130.77-.78c11.88-.07,21.57,9.5,21.64,21.38l1.43,239.38c.07,11.88-9.5,21.57-21.38,21.64Z"/><path class="cls-15" d="M255.23,312.87l-129.55,.77c-11.87,.07-21.55-9.49-21.62-21.36l-1.42-237.96c-.07-11.87,9.49-21.55,21.36-21.62l129.55-.77c11.87-.07,21.55,9.49,21.62,21.36l1.42,237.96c.07,11.87-9.49,21.55-21.36,21.62Z"/><path class="cls-34" d="M254.61,312.1l-128.32,.76c-11.86,.07-21.53-9.49-21.6-21.34l-1.41-236.53c-.07-11.86,9.49-21.53,21.34-21.6l128.32-.76c11.86-.07,21.53,9.49,21.6,21.34l1.41,236.53c.07,11.86-9.49,21.53-21.34,21.6Z"/><path class="cls-5" d="M253.99,311.32l-127.09,.76c-11.85,.07-21.51-9.48-21.58-21.33l-1.4-235.11c-.07-11.85,9.48-21.51,21.33-21.58l127.09-.76c11.85-.07,21.51,9.48,21.58,21.33l1.4,235.11c.07,11.85-9.48,21.51-21.33,21.58Z"/><path class="cls-47" d="M253.38,310.55l-125.86,.75c-11.84,.07-21.49-9.47-21.56-21.31l-1.39-233.68c-.07-11.84,9.47-21.49,21.31-21.56l125.86-.75c11.84-.07,21.49,9.47,21.56,21.31l1.39,233.68c.07,11.84-9.47,21.49-21.31,21.56Z"/><path class="cls-24" d="M252.76,309.77l-124.64,.74c-11.83,.07-21.47-9.46-21.54-21.29l-1.38-232.26c-.07-11.83,9.46-21.47,21.29-21.54l124.64-.74c11.83-.07,21.47,9.46,21.54,21.29l1.38,232.26c.07,11.83-9.46,21.47-21.29,21.54Z"/><path class="cls-33" d="M252.14,309l-123.41,.74c-11.82,.07-21.45-9.45-21.52-21.27l-1.38-230.83c-.07-11.82,9.45-21.45,21.27-21.52l123.41-.74c11.82-.07,21.45,9.45,21.52,21.27l1.38,230.83c.07,11.82-9.45,21.45-21.27,21.52Z"/><path class="cls-20" d="M251.52,308.23l-122.18,.73c-11.8,.07-21.43-9.44-21.5-21.25l-1.37-229.4c-.07-11.8,9.44-21.43,21.25-21.5l122.18-.73c11.8-.07,21.43,9.44,21.5,21.25l1.37,229.41c.07,11.8-9.44,21.43-21.25,21.5Z"/><path class="cls-27" d="M250.9,307.45l-120.95,.72c-11.79,.07-21.41-9.43-21.48-21.23l-1.36-227.98c-.07-11.79,9.43-21.41,21.23-21.48l120.95-.72c11.79-.07,21.41,9.43,21.48,21.23l1.36,227.98c.07,11.79-9.43,21.41-21.23,21.48Z"/><path class="cls-29" d="M250.28,306.68l-119.72,.71c-11.78,.07-21.39-9.43-21.46-21.21l-1.35-226.55c-.07-11.78,9.43-21.39,21.21-21.46l119.72-.71c11.78-.07,21.39,9.43,21.46,21.21l1.35,226.55c.07,11.78-9.43,21.39-21.21,21.46Z"/><path class="cls-32" d="M249.67,305.9l-118.5,.71c-11.77,.07-21.37-9.42-21.44-21.19l-1.34-225.13c-.07-11.77,9.42-21.37,21.19-21.44l118.5-.71c11.77-.07,21.37,9.42,21.44,21.19l1.34,225.13c.07,11.77-9.42,21.37-21.19,21.44Z"/><path class="cls-45" d="M249.05,305.13l-117.27,.7c-11.76,.07-21.35-9.41-21.42-21.17l-1.33-223.7c-.07-11.76,9.41-21.35,21.17-21.42l117.27-.7c11.76-.07,21.35,9.41,21.42,21.17l1.33,223.7c.07,11.76-9.41,21.35-21.17,21.42Z"/><path class="cls-6" d="M248.43,304.35l-116.04,.69c-11.75,.07-21.33-9.4-21.4-21.15l-1.32-222.28c-.07-11.75,9.4-21.33,21.15-21.4l116.04-.69c11.75-.07,21.33,9.4,21.4,21.15l1.32,222.28c.07,11.75-9.4,21.33-21.15,21.4Z"/><path class="cls-46" d="M247.81,303.58l-114.81,.68c-11.74,.07-21.31-9.39-21.38-21.13l-1.32-220.85c-.07-11.74,9.39-21.31,21.13-21.38l114.81-.68c11.74-.07,21.31,9.39,21.38,21.13l1.32,220.85c.07,11.74-9.39,21.31-21.13,21.38Z"/><path class="cls-19" d="M247.19,302.81l-113.59,.68c-11.73,.07-21.29-9.38-21.36-21.11l-1.31-219.43c-.07-11.73,9.38-21.29,21.11-21.36l113.59-.68c11.73-.07,21.29,9.38,21.36,21.11l1.31,219.43c.07,11.73-9.38,21.29-21.11,21.36Z"/><path class="cls-41" d="M246.57,302.03l-112.36,.67c-11.72,.07-21.27-9.37-21.34-21.09l-1.3-218c-.07-11.72,9.37-21.27,21.09-21.34l112.36-.67c11.72-.07,21.27,9.37,21.34,21.09l1.3,218c.07,11.72-9.37,21.27-21.09,21.34Z"/><path class="cls-44" d="M245.95,301.26l-111.13,.66c-11.71,.07-21.25-9.36-21.32-21.07l-1.29-216.58c-.07-11.71,9.36-21.25,21.07-21.32l111.13-.66c11.71-.07,21.25,9.36,21.32,21.07l1.29,216.58c.07,11.71-9.36,21.25-21.07,21.32Z"/><path class="cls-39" d="M245.34,300.48l-109.9,.65c-11.7,.07-21.23-9.36-21.3-21.05l-1.28-215.15c-.07-11.7,9.36-21.23,21.05-21.3l109.9-.65c11.7-.07,21.23,9.36,21.3,21.05l1.28,215.15c.07,11.7-9.36,21.23-21.05,21.3Z"/></g><rect class="cls-17" x="96.15" y="26.84" width="186.96" height="294.17" rx="12.4" ry="12.4"/><g><path class="cls-49" d="M167.89,206.36c9.2,0,17.56-5.85,21.74-16.3,4.18,10.45,12.54,16.3,21.74,16.3,11.66,0,21.54-11.5,21.52-22.76-.02-6.95-3.25-13.57-7.63-18.96-4.38-5.39-9.88-9.75-15.24-14.16-7.55-6.21-15.64-13.58-20.38-22.28-4.74,8.69-12.84,16.06-20.38,22.28-5.36,4.42-10.86,8.77-15.24,14.16-4.38,5.39-7.61,12.02-7.63,18.96-.03,11.26,9.85,22.76,21.52,22.76Z"/><path class="cls-49" d="M189.63,189.01c-2.01,10.85-9.43,23.25-17.8,30.5l.57,.15c4.91-2.72,10.84-4.32,17.23-4.32s12.21,1.57,17.09,4.24l.61-.16c-8.33-7.27-15.7-19.61-17.71-30.42Z"/></g><g><path class="cls-49" d="M108.26,97.15c3.13,0,5.98-1.99,7.4-5.55,1.42,3.56,4.27,5.55,7.4,5.55,3.97,0,7.34-3.92,7.33-7.75,0-2.37-1.11-4.62-2.6-6.46-1.49-1.84-3.36-3.32-5.19-4.82-2.57-2.12-5.33-4.63-6.94-7.59-1.62,2.96-4.37,5.47-6.94,7.59-1.83,1.5-3.7,2.99-5.19,4.82-1.49,1.84-2.59,4.09-2.6,6.46,0,3.83,3.36,7.75,7.33,7.75Z"/><path class="cls-49" d="M115.67,91.24c-.68,3.7-3.21,7.92-6.06,10.39l.19,.05c1.67-.93,3.69-1.47,5.87-1.47s4.16,.53,5.82,1.45l.21-.05c-2.84-2.48-5.35-6.68-6.03-10.36Z"/></g><g><path class="cls-49" d="M254.29,252.45c3.13,0,5.98,1.99,7.4,5.55,1.42-3.56,4.27-5.55,7.4-5.55,3.97,0,7.34,3.92,7.33,7.75,0,2.37-1.11,4.62-2.6,6.46-1.49,1.84-3.36,3.32-5.19,4.82-2.57,2.12-5.33,4.63-6.94,7.59-1.62-2.96-4.37-5.47-6.94-7.59-1.83-1.5-3.7-2.99-5.19-4.82-1.49-1.84-2.59-4.09-2.6-6.46,0-3.83,3.36-7.75,7.33-7.75Z"/><path class="cls-49" d="M261.7,258.36c-.68-3.7-3.21-7.92-6.06-10.39l.19-.05c1.67,.93,3.69,1.47,5.87,1.47s4.16-.53,5.82-1.45l.21,.05c-2.84,2.48-5.35,6.68-6.03,10.36Z"/></g><polygon class="cls-49" points="250.05 304.66 115.35 304.66 115.35 106.61 116.65 106.61 116.65 303.36 250.05 303.36 250.05 304.66"/><polygon class="cls-49" points="262.92 241.9 261.61 241.9 261.61 45.15 133.71 45.15 133.71 43.84 262.92 43.84 262.92 241.9"/><path class="cls-49" d="M115.14,35.3c1.43,0,2.76,.36,3.99,1.08,1.23,.72,2.3,1.71,3.21,2.96,.91,1.25,1.62,2.73,2.14,4.44,.52,1.71,.78,3.54,.78,5.52,0,2.18-.31,4.17-.94,5.97s-1.46,3.35-2.49,4.65c-.68,.83-1.44,1.54-2.29,2.11-.84,.57-1.73,1.1-2.65,1.58-.44,.25-.86,.52-1.28,.8-.41,.28-.79,.6-1.13,.97v.14c.1-.02,.23-.04,.4-.05,.17-.01,.32-.02,.45-.02,.73,0,1.41,.13,2.04,.4,.63,.27,1.25,.57,1.85,.9s1.2,.64,1.8,.91c.6,.27,1.23,.4,1.9,.4,.76,0,1.34-.23,1.73-.69,.39-.47,.71-1.27,.95-2.4h.61c.03,.21,.06,.44,.07,.69,.02,.25,.02,.51,.02,.77,0,.74-.11,1.42-.33,2.04-.22,.61-.52,1.15-.9,1.6-.38,.45-.83,.81-1.35,1.06-.52,.25-1.08,.38-1.68,.38-.91,0-1.75-.25-2.52-.75-.77-.5-1.5-1.04-2.19-1.63-.69-.59-1.35-1.14-1.98-1.64-.63-.5-1.26-.75-1.87-.75-.42,0-.76,.12-1.02,.35-.26,.23-.49,.49-.71,.78-.21,.29-.41,.55-.6,.78-.19,.23-.42,.35-.69,.35-.47,0-.71-.29-.71-.87,0-.16,.02-.3,.05-.42,.03-.12,.1-.25,.21-.4,.11-.15,.26-.32,.47-.52s.5-.45,.88-.75l3.16-2.57c-1.36-.07-2.63-.48-3.79-1.24-1.17-.75-2.17-1.76-3.02-3.03-.84-1.26-1.5-2.74-1.98-4.42-.48-1.68-.72-3.48-.72-5.41s.26-3.85,.78-5.57c.52-1.72,1.23-3.2,2.14-4.46,.91-1.25,1.98-2.24,3.21-2.96,1.23-.72,2.56-1.08,3.99-1.08Zm0,26.45c1.07,0,2.03-.29,2.88-.87,.85-.58,1.58-1.41,2.19-2.49,.61-1.08,1.07-2.38,1.4-3.9,.32-1.52,.49-3.23,.49-5.13s-.16-3.53-.49-5.03c-.32-1.5-.79-2.77-1.39-3.83-.6-1.06-1.33-1.87-2.19-2.43-.86-.57-1.82-.85-2.89-.85s-2.04,.28-2.89,.85c-.86,.57-1.59,1.38-2.19,2.43-.6,1.06-1.06,2.33-1.39,3.83-.33,1.5-.49,3.17-.49,5.03s.16,3.61,.49,5.13c.32,1.52,.79,2.82,1.39,3.9,.6,1.08,1.33,1.91,2.19,2.49,.86,.58,1.82,.87,2.89,.87Z"/><path class="cls-49" d="M266.02,315.82c-1.43,0-2.76-.36-3.99-1.08-1.23-.72-2.3-1.71-3.21-2.96-.91-1.25-1.62-2.73-2.14-4.44-.52-1.71-.78-3.54-.78-5.52,0-2.18,.31-4.17,.94-5.97,.62-1.8,1.46-3.35,2.49-4.65,.68-.83,1.44-1.54,2.29-2.11,.84-.57,1.73-1.1,2.65-1.58,.44-.25,.86-.52,1.28-.8s.79-.6,1.13-.97v-.14c-.1,.02-.23,.04-.4,.05-.17,.01-.32,.02-.45,.02-.73,0-1.41-.13-2.04-.4-.63-.27-1.25-.57-1.85-.9-.6-.34-1.2-.64-1.8-.91-.6-.27-1.23-.4-1.9-.4-.76,0-1.34,.23-1.73,.69-.39,.47-.71,1.27-.95,2.4h-.61c-.03-.21-.06-.44-.07-.7-.02-.25-.02-.51-.02-.77,0-.74,.11-1.42,.33-2.04,.22-.61,.52-1.15,.9-1.6,.38-.45,.83-.81,1.35-1.06,.52-.25,1.08-.38,1.68-.38,.91,0,1.75,.25,2.52,.75,.77,.5,1.5,1.04,2.19,1.63,.69,.59,1.35,1.14,1.98,1.64,.63,.5,1.26,.75,1.87,.75,.42,0,.76-.12,1.02-.35,.26-.23,.5-.49,.71-.78,.21-.29,.41-.55,.6-.78,.19-.23,.42-.35,.69-.35,.47,0,.71,.29,.71,.87,0,.16-.02,.3-.05,.42-.03,.12-.1,.25-.21,.4-.11,.15-.26,.32-.47,.52s-.5,.45-.88,.75l-3.16,2.57c1.36,.07,2.63,.48,3.79,1.24,1.17,.75,2.17,1.76,3.02,3.03,.84,1.26,1.5,2.74,1.98,4.42,.48,1.68,.72,3.49,.72,5.41s-.26,3.85-.78,5.57c-.52,1.72-1.23,3.2-2.14,4.46-.91,1.25-1.98,2.24-3.21,2.96-1.23,.72-2.56,1.08-3.99,1.08Zm0-26.45c-1.07,0-2.03,.29-2.88,.87-.85,.58-1.58,1.41-2.19,2.49-.61,1.08-1.07,2.38-1.4,3.9-.32,1.52-.49,3.23-.49,5.13s.16,3.53,.49,5.03c.32,1.5,.79,2.77,1.39,3.83,.6,1.06,1.33,1.87,2.19,2.43,.86,.57,1.82,.85,2.89,.85s2.04-.28,2.89-.85c.86-.57,1.59-1.38,2.19-2.43,.6-1.06,1.06-2.33,1.39-3.83,.33-1.5,.49-3.17,.49-5.03s-.16-3.61-.49-5.13c-.32-1.52-.79-2.82-1.39-3.9-.6-1.08-1.33-1.91-2.19-2.49-.86-.58-1.82-.87-2.89-.87Z"/></g><g><g class="cls-48"><path class="cls-4" d="M274.24,338.84l-158.81-21.35c-12.03-1.62-20.48-12.68-18.86-24.72L133.04,21.61c1.62-12.03,12.68-20.48,24.72-18.86l158.81,21.35c12.03,1.62,20.48,12.68,18.86,24.72l-36.46,271.16c-1.62,12.03-12.68,20.48-24.72,18.86Z"/><path class="cls-31" d="M273.74,337.99l-157.59-21.19c-12.02-1.62-20.46-12.67-18.84-24.69L133.58,22.36c1.62-12.02,12.67-20.46,24.69-18.84l157.59,21.19c12.02,1.62,20.46,12.67,18.84,24.69l-36.27,269.75c-1.62,12.02-12.67,20.46-24.69,18.84Z"/><path class="cls-21" d="M273.23,337.14l-156.37-21.03c-12.01-1.62-20.44-12.66-18.82-24.67L134.12,23.1c1.62-12.01,12.66-20.44,24.67-18.82l156.37,21.03c12.01,1.62,20.44,12.66,18.82,24.67l-36.08,268.33c-1.62,12.01-12.66,20.44-24.67,18.82Z"/><path class="cls-26" d="M272.73,336.28l-155.16-20.86c-12-1.61-20.42-12.65-18.81-24.65L134.66,23.85c1.61-12,12.65-20.42,24.65-18.81l155.16,20.86c12,1.61,20.42,12.65,18.81,24.65l-35.89,266.92c-1.61,12-12.65,20.42-24.65,18.81Z"/><path class="cls-40" d="M272.22,335.43l-153.94-20.7c-11.99-1.61-20.4-12.64-18.79-24.63L135.2,24.59c1.61-11.99,12.64-20.4,24.63-18.79l153.94,20.7c11.99,1.61,20.4,12.64,18.79,24.63l-35.7,265.51c-1.61,11.99-12.64,20.4-24.63,18.79Z"/><path class="cls-28" d="M271.72,334.58l-152.72-20.54c-11.98-1.61-20.38-12.63-18.77-24.61L135.73,25.34c1.61-11.98,12.63-20.38,24.61-18.77l152.72,20.54c11.98,1.61,20.38,12.63,18.77,24.61l-35.51,264.1c-1.61,11.98-12.63,20.38-24.61,18.77Z"/><path class="cls-23" d="M271.22,333.73l-151.51-20.37c-11.97-1.61-20.37-12.62-18.76-24.58L136.27,26.09c1.61-11.97,12.62-20.37,24.58-18.76l151.51,20.37c11.97,1.61,20.37,12.62,18.76,24.58l-35.32,262.68c-1.61,11.97-12.62,20.37-24.58,18.76Z"/><path class="cls-12" d="M270.71,332.87l-150.29-20.21c-11.96-1.61-20.35-12.6-18.74-24.56L136.81,26.83c1.61-11.96,12.6-20.35,24.56-18.74l150.29,20.21c11.96,1.61,20.35,12.6,18.74,24.56l-35.13,261.27c-1.61,11.96-12.6,20.35-24.56,18.74Z"/><path class="cls-30" d="M270.21,332.02l-149.08-20.05c-11.95-1.61-20.33-12.59-18.72-24.54L137.35,27.58c1.61-11.95,12.59-20.33,24.54-18.72l149.07,20.05c11.95,1.61,20.33,12.59,18.72,24.54l-34.94,259.86c-1.61,11.95-12.59,20.33-24.54,18.72Z"/><path class="cls-10" d="M269.7,331.17l-147.86-19.88c-11.94-1.61-20.31-12.58-18.71-24.52L137.89,28.32c1.61-11.94,12.58-20.31,24.52-18.71l147.86,19.88c11.94,1.61,20.31,12.58,18.71,24.52l-34.75,258.44c-1.61,11.94-12.58,20.31-24.52,18.71Z"/><path class="cls-25" d="M269.2,330.31l-146.64-19.72c-11.93-1.6-20.29-12.57-18.69-24.5L138.43,29.07c1.6-11.93,12.57-20.29,24.5-18.69l146.64,19.72c11.93,1.6,20.29,12.57,18.69,24.5l-34.56,257.03c-1.6,11.93-12.57,20.29-24.5,18.69Z"/><path class="cls-18" d="M268.69,329.46l-145.43-19.56c-11.91-1.6-20.27-12.56-18.67-24.47L138.97,29.81c1.6-11.91,12.56-20.27,24.47-18.67l145.43,19.56c11.91,1.6,20.27,12.56,18.67,24.47l-34.37,255.62c-1.6,11.91-12.56,20.27-24.47,18.67Z"/><path class="cls-43" d="M268.19,328.61l-144.21-19.39c-11.9-1.6-20.26-12.55-18.66-24.45L139.51,30.56c1.6-11.9,12.55-20.26,24.45-18.66l144.21,19.39c11.9,1.6,20.26,12.55,18.66,24.45l-34.18,254.21c-1.6,11.9-12.55,20.26-24.45,18.66Z"/><path class="cls-1" d="M267.68,327.76l-142.99-19.23c-11.89-1.6-20.24-12.54-18.64-24.43L140.05,31.3c1.6-11.89,12.54-20.24,24.43-18.64l142.99,19.23c11.89,1.6,20.24,12.54,18.64,24.43l-33.99,252.79c-1.6,11.89-12.54,20.24-24.43,18.64Z"/><path class="cls-22" d="M267.18,326.9l-141.78-19.06c-11.88-1.6-20.22-12.53-18.62-24.41L140.58,32.05c1.6-11.88,12.53-20.22,24.41-18.62l141.78,19.06c11.88,1.6,20.22,12.53,18.62,24.41l-33.8,251.38c-1.6,11.88-12.53,20.22-24.41,18.62Z"/><path class="cls-11" d="M266.67,326.05l-140.56-18.9c-11.87-1.6-20.2-12.51-18.6-24.39L141.12,32.8c1.6-11.87,12.51-20.2,24.39-18.6l140.56,18.9c11.87,1.6,20.2,12.51,18.6,24.39l-33.61,249.97c-1.6,11.87-12.51,20.2-24.39,18.6Z"/><path class="cls-13" d="M266.17,325.2l-139.34-18.74c-11.86-1.59-20.18-12.5-18.59-24.36L141.66,33.54c1.59-11.86,12.5-20.18,24.36-18.59l139.34,18.74c11.86,1.59,20.18,12.5,18.59,24.36l-33.42,248.55c-1.59,11.86-12.5,20.18-24.36,18.59Z"/><path class="cls-35" d="M265.66,324.34l-138.13-18.57c-11.85-1.59-20.16-12.49-18.57-24.34L142.2,34.29c1.59-11.85,12.49-20.16,24.34-18.57l138.13,18.57c11.85,1.59,20.16,12.49,18.57,24.34l-33.23,247.14c-1.59,11.85-12.49,20.16-24.34,18.57Z"/><path class="cls-14" d="M265.16,323.49l-136.91-18.41c-11.84-1.59-20.15-12.48-18.55-24.32L142.74,35.03c1.59-11.84,12.48-20.15,24.32-18.55l136.91,18.41c11.84,1.59,20.15,12.48,18.55,24.32l-33.04,245.73c-1.59,11.84-12.48,20.15-24.32,18.55Z"/><path class="cls-2" d="M264.65,322.64l-135.69-18.25c-11.83-1.59-20.13-12.47-18.54-24.3L143.28,35.78c1.59-11.83,12.47-20.13,24.3-18.54l135.69,18.25c11.83,1.59,20.13,12.47,18.54,24.3l-32.85,244.32c-1.59,11.83-12.47,20.13-24.3,18.54Z"/><path class="cls-16" d="M264.15,321.79l-134.48-18.08c-11.82-1.59-20.11-12.46-18.52-24.28L143.82,36.52c1.59-11.82,12.46-20.11,24.28-18.52l134.48,18.08c11.82,1.59,20.11,12.46,18.52,24.28l-32.66,242.9c-1.59,11.82-12.46,20.11-24.28,18.52Z"/><path class="cls-36" d="M263.65,320.93l-133.26-17.92c-11.81-1.59-20.09-12.45-18.5-24.25L144.36,37.27c1.59-11.81,12.45-20.09,24.25-18.5l133.26,17.92c11.81,1.59,20.09,12.45,18.5,24.25l-32.47,241.49c-1.59,11.81-12.45,20.09-24.25,18.5Z"/><path class="cls-42" d="M263.14,320.08l-132.04-17.76c-11.8-1.59-20.07-12.44-18.49-24.23L144.9,38.02c1.59-11.8,12.44-20.07,24.23-18.49l132.04,17.76c11.8,1.59,20.07,12.44,18.49,24.23l-32.28,240.08c-1.59,11.8-12.44,20.07-24.23,18.49Z"/><path class="cls-50" d="M262.64,319.23l-130.83-17.59c-11.79-1.58-20.05-12.42-18.47-24.21L145.43,38.76c1.58-11.79,12.42-20.05,24.21-18.47l130.83,17.59c11.79,1.58,20.05,12.42,18.47,24.21l-32.09,238.67c-1.58,11.79-12.42,20.06-24.21,18.47Z"/><path class="cls-8" d="M262.13,318.37l-129.61-17.43c-11.77-1.58-20.04-12.41-18.45-24.19l31.9-237.25c1.58-11.77,12.41-20.04,24.19-18.45l129.61,17.43c11.77,1.58,20.04,12.41,18.45,24.19l-31.9,237.25c-1.58,11.77-12.41,20.04-24.19,18.45Z"/><path class="cls-15" d="M261.63,317.52l-128.39-17.26c-11.76-1.58-20.02-12.4-18.44-24.17l31.71-235.84c1.58-11.76,12.4-20.02,24.17-18.44l128.39,17.26c11.76,1.58,20.02,12.4,18.44,24.17l-31.71,235.84c-1.58,11.76-12.4,20.02-24.17,18.44Z"/><path class="cls-34" d="M261.12,316.67l-127.18-17.1c-11.75-1.58-20-12.39-18.42-24.14l31.52-234.43c1.58-11.75,12.39-20,24.14-18.42l127.18,17.1c11.75,1.58,20,12.39,18.42,24.14l-31.52,234.43c-1.58,11.75-12.39,20-24.14,18.42Z"/><path class="cls-5" d="M260.62,315.82l-125.96-16.94c-11.74-1.58-19.98-12.38-18.4-24.12l31.33-233.01c1.58-11.74,12.38-19.98,24.12-18.4l125.96,16.94c11.74,1.58,19.98,12.38,18.4,24.12l-31.33,233.01c-1.58,11.74-12.38,19.98-24.12,18.4Z"/><path class="cls-47" d="M260.11,314.96l-124.74-16.77c-11.73-1.58-19.96-12.37-18.39-24.1l31.14-231.6c1.58-11.73,12.37-19.96,24.1-18.39l124.74,16.77c11.73,1.58,19.96,12.37,18.39,24.1l-31.14,231.6c-1.58,11.73-12.37,19.96-24.1,18.39Z"/><path class="cls-24" d="M259.61,314.11l-123.53-16.61c-11.72-1.58-19.95-12.36-18.37-24.08l30.95-230.19c1.58-11.72,12.36-19.95,24.08-18.37l123.53,16.61c11.72,1.58,19.95,12.36,18.37,24.08l-30.95,230.19c-1.58,11.72-12.36,19.95-24.08,18.37Z"/><path class="cls-33" d="M259.1,313.26l-122.31-16.45c-11.71-1.57-19.93-12.34-18.35-24.05l30.76-228.78c1.57-11.71,12.34-19.93,24.05-18.35l122.31,16.45c11.71,1.57,19.93,12.34,18.35,24.05l-30.76,228.78c-1.57,11.71-12.34,19.93-24.05,18.35Z"/><path class="cls-20" d="M258.6,312.4l-121.09-16.28c-11.7-1.57-19.91-12.33-18.34-24.03l30.57-227.36c1.57-11.7,12.33-19.91,24.03-18.34l121.09,16.28c11.7,1.57,19.91,12.33,18.34,24.03l-30.57,227.36c-1.57,11.7-12.33,19.91-24.03,18.34Z"/><path class="cls-27" d="M258.09,311.55l-119.88-16.12c-11.69-1.57-19.89-12.32-18.32-24.01l30.38-225.95c1.57-11.69,12.32-19.89,24.01-18.32l119.88,16.12c11.69,1.57,19.89,12.32,18.32,24.01l-30.38,225.95c-1.57,11.69-12.32,19.89-24.01,18.32Z"/><path class="cls-29" d="M257.59,310.7l-118.66-15.96c-11.68-1.57-19.87-12.31-18.3-23.99l30.19-224.54c1.57-11.68,12.31-19.87,23.99-18.3l118.66,15.96c11.68,1.57,19.87,12.31,18.3,23.99l-30.19,224.54c-1.57,11.68-12.31,19.87-23.99,18.3Z"/><path class="cls-32" d="M257.09,309.85l-117.44-15.79c-11.67-1.57-19.85-12.3-18.29-23.97l30-223.12c1.57-11.67,12.3-19.85,23.97-18.29l117.44,15.79c11.67,1.57,19.85,12.3,18.28,23.97l-30,223.12c-1.57,11.67-12.3,19.85-23.97,18.29Z"/><path class="cls-45" d="M256.58,308.99l-116.23-15.63c-11.66-1.57-19.84-12.29-18.27-23.94l29.81-221.71c1.57-11.66,12.29-19.84,23.94-18.27l116.23,15.63c11.66,1.57,19.84,12.29,18.27,23.94l-29.81,221.71c-1.57,11.66-12.29,19.84-23.94,18.27Z"/><path class="cls-6" d="M256.08,308.14l-115.01-15.47c-11.65-1.57-19.82-12.28-18.25-23.92l29.62-220.3c1.57-11.65,12.28-19.82,23.92-18.25l115.01,15.47c11.65,1.57,19.82,12.28,18.25,23.92l-29.62,220.3c-1.57,11.65-12.28,19.82-23.92,18.25Z"/><path class="cls-46" d="M255.57,307.29l-113.79-15.3c-11.64-1.56-19.8-12.27-18.23-23.9l29.43-218.89c1.56-11.64,12.27-19.8,23.9-18.23l113.79,15.3c11.64,1.56,19.8,12.27,18.23,23.9l-29.43,218.89c-1.56,11.64-12.27,19.8-23.9,18.23Z"/><path class="cls-19" d="M255.07,306.43l-112.58-15.14c-11.62-1.56-19.78-12.25-18.22-23.88l29.24-217.47c1.56-11.62,12.25-19.78,23.88-18.22l112.58,15.14c11.62,1.56,19.78,12.25,18.22,23.88l-29.24,217.47c-1.56,11.62-12.25,19.78-23.88,18.22Z"/><path class="cls-41" d="M254.56,305.58l-111.36-14.97c-11.61-1.56-19.76-12.24-18.2-23.86l29.05-216.06c1.56-11.61,12.24-19.76,23.86-18.2l111.36,14.97c11.61,1.56,19.76,12.24,18.2,23.86l-29.05,216.06c-1.56,11.61-12.24,19.76-23.86,18.2Z"/><path class="cls-44" d="M254.06,304.73l-110.14-14.81c-11.6-1.56-19.74-12.23-18.18-23.83l28.86-214.65c1.56-11.6,12.23-19.74,23.83-18.18l110.14,14.81c11.6,1.56,19.74,12.23,18.18,23.83l-28.86,214.65c-1.56,11.6-12.23,19.74-23.83,18.18Z"/><path class="cls-39" d="M108.67,92.81h215.15c11.69,0,21.18,9.49,21.18,21.18v109.91c0,11.69-9.49,21.18-21.18,21.18H108.67c-11.69,0-21.18-9.49-21.18-21.18V113.99c0-11.69,9.49-21.18,21.18-21.18Z" transform="translate(19.99 360.75) rotate(-82.34)"/></g><path class="cls-37" d="M275.82,327.74l-160.58-22.57c-6.78-.95-11.5-7.22-10.55-14L142.18,24.41c.95-6.78,7.22-11.5,14-10.55l160.58,22.57c6.78,.95,11.5,7.22,10.55,14l-37.49,266.76c-.95,6.78-7.22,11.5-14,10.55Z"/><g><path class="cls-49" d="M189.96,199.89c9.11,1.28,18.2-3.35,23.79-13.12,2.68,10.93,10.15,17.89,19.25,19.17,11.55,1.62,22.93-8.39,24.47-19.54,.95-6.88-1.33-13.89-4.91-19.84-3.59-5.95-8.42-11.03-13.12-16.15-6.61-7.2-13.6-15.63-17.09-24.9-5.91,7.95-14.95,14.12-23.29,19.22-5.93,3.63-11.98,7.17-17.06,11.9-5.09,4.73-9.21,10.84-10.19,17.72-1.59,11.14,6.59,23.91,18.14,25.53Z"/><path class="cls-49" d="M213.9,185.74c-3.5,10.47-12.57,21.71-21.87,27.73l.55,.23c5.25-2.01,11.34-2.77,17.66-1.88,6.27,.88,11.87,3.25,16.34,6.58l.63-.07c-7.24-8.35-12.82-21.6-13.3-32.59Z"/></g><g><path class="cls-49" d="M146.11,83.45c3.1,.44,6.2-1.14,8.11-4.47,.91,3.72,3.46,6.09,6.56,6.53,3.93,.55,7.81-2.86,8.34-6.66,.32-2.34-.45-4.73-1.67-6.76-1.22-2.03-2.87-3.76-4.47-5.5-2.25-2.45-4.63-5.32-5.82-8.48-2.01,2.71-5.09,4.81-7.93,6.55-2.02,1.24-4.08,2.44-5.81,4.06-1.73,1.61-3.14,3.69-3.47,6.04-.54,3.8,2.24,8.15,6.18,8.7Z"/><path class="cls-49" d="M154.26,78.63c-1.19,3.57-4.28,7.4-7.45,9.45l.19,.08c1.79-.69,3.86-.94,6.02-.64,2.13,.3,4.04,1.11,5.57,2.24l.21-.02c-2.47-2.85-4.37-7.36-4.53-11.1Z"/></g><g><path class="cls-49" d="M269.11,257.56c3.1,.44,5.64,2.81,6.56,6.53,1.91-3.33,5-4.9,8.11-4.47,3.93,.55,6.72,4.9,6.18,8.7-.33,2.34-1.74,4.42-3.47,6.04-1.73,1.61-3.79,2.82-5.81,4.06-2.84,1.74-5.92,3.84-7.93,6.55-1.19-3.16-3.57-6.03-5.82-8.48-1.6-1.74-3.25-3.47-4.47-5.5-1.22-2.03-2-4.41-1.67-6.76,.52-3.8,4.4-7.21,8.34-6.66Z"/><path class="cls-49" d="M275.62,264.44c-.16-3.76-2.08-8.29-4.56-11.13l.2-.02c1.53,1.15,3.45,1.97,5.61,2.27,2.13,.3,4.19,.05,5.97-.62l.2,.08c-3.16,2.06-6.23,5.87-7.42,9.42Z"/></g><g><path class="cls-49" d="M154.99,45.7c-.13,.93-.2,1.7-.2,2.3,0,.6,.09,1.08,.28,1.43,.19,.35,.49,.61,.88,.78,.4,.17,.94,.3,1.63,.4l-.2,1.4-9.55-1.34,.2-1.4c.69,.1,1.25,.12,1.69,.07,.44-.05,.8-.21,1.07-.49,.28-.27,.5-.68,.65-1.22,.16-.54,.29-1.24,.41-2.1l2.41-17.16c.13-.93,.19-1.68,.18-2.25-.01-.56-.11-1.01-.29-1.34-.18-.33-.46-.56-.82-.7-.36-.14-.84-.25-1.43-.33l.2-1.4,8.96,1.26-.2,1.4c-.59-.08-1.08-.1-1.46-.05-.39,.05-.72,.21-.99,.5-.27,.29-.49,.72-.65,1.28-.16,.57-.31,1.34-.45,2.32l-1.28,9.1,8.92-10.05c.48-.56,.74-1.01,.79-1.35,.1-.69-.41-1.11-1.53-1.27l.2-1.4,7.1,1-.19,1.36c-.39-.06-.74-.07-1.04-.05-.3,.02-.61,.11-.92,.26-.31,.16-.65,.4-1.02,.72-.37,.32-.8,.75-1.29,1.28l-6.66,7.21,6.79,14.14c.39,.78,.78,1.34,1.18,1.69,.39,.34,.95,.57,1.68,.67l-.2,1.4-9.04-1.27,.2-1.4c.77,.11,1.33,.11,1.68,0,.36-.11,.56-.34,.61-.68,.03-.2-.01-.49-.12-.88-.11-.39-.3-.88-.57-1.47l-4.5-9.65-2.45,2.66-.65,4.64Z"/><polygon class="cls-49" points="257.64 308.67 124.25 289.92 151.81 93.8 153.11 93.98 125.72 288.81 257.82 307.38 257.64 308.67"/><polygon class="cls-49" points="279.12 248.31 277.82 248.12 305.21 53.29 173.11 34.73 173.29 33.43 306.68 52.18 279.12 248.31"/><path class="cls-49" d="M277.01,295.9c.13-.93,.2-1.7,.2-2.3,0-.6-.09-1.08-.28-1.43-.19-.35-.49-.61-.88-.78-.4-.17-.94-.3-1.63-.4l.2-1.4,9.55,1.34-.2,1.4c-.69-.1-1.25-.12-1.69-.07-.44,.05-.8,.21-1.07,.49-.28,.27-.5,.68-.65,1.22-.16,.54-.29,1.24-.41,2.1l-2.41,17.16c-.13,.93-.19,1.68-.18,2.25,.01,.56,.11,1.01,.29,1.34,.18,.33,.46,.56,.82,.7,.36,.14,.84,.25,1.43,.33l-.2,1.4-8.96-1.26,.2-1.4c.59,.08,1.08,.1,1.46,.05,.39-.05,.72-.21,.99-.5,.27-.29,.49-.72,.65-1.28,.16-.57,.31-1.34,.45-2.32l1.28-9.1-8.92,10.05c-.48,.56-.74,1.01-.79,1.35-.1,.69,.41,1.11,1.53,1.27l-.2,1.4-7.1-1,.19-1.36c.39,.06,.74,.07,1.04,.05,.3-.02,.61-.11,.92-.26,.31-.16,.65-.4,1.02-.72,.37-.32,.8-.75,1.29-1.28l6.66-7.21-6.79-14.14c-.39-.78-.78-1.34-1.18-1.69-.39-.34-.95-.57-1.68-.67l.2-1.4,9.04,1.27-.2,1.4c-.77-.11-1.33-.11-1.68,0-.36,.11-.56,.34-.61,.68-.03,.2,.01,.49,.12,.88,.11,.39,.3,.88,.57,1.47l4.5,9.65,2.45-2.66,.65-4.64Z"/></g></g><g><g class="cls-48"><path class="cls-4" d="M294.3,353.27l-172.58-39.84c-7.29-1.68-11.83-8.95-10.15-16.24L177.76,10.5c1.68-7.29,8.95-11.83,16.24-10.15l172.58,39.84c7.29,1.68,11.83,8.95,10.15,16.24l-66.19,286.69c-1.68,7.29-8.95,11.83-16.24,10.15Z"/><path class="cls-31" d="M293.55,352.54l-170.84-39.44c-7.5-1.73-12.18-9.22-10.45-16.72L178.03,11.53c1.73-7.5,9.22-12.18,16.72-10.45l170.84,39.44c7.5,1.73,12.18,9.22,10.45,16.72l-65.76,284.85c-1.73,7.5-9.22,12.18-16.72,10.45Z"/><path class="cls-21" d="M292.8,351.81l-169.09-39.04c-7.72-1.78-12.53-9.49-10.75-17.21L178.29,12.56c1.78-7.72,9.49-12.53,17.21-10.75l169.09,39.04c7.72,1.78,12.53,9.49,10.75,17.21l-65.34,283.01c-1.78,7.72-9.49,12.53-17.21,10.75Z"/><path class="cls-26" d="M292.05,351.09l-167.35-38.63c-7.94-1.83-12.89-9.75-11.05-17.69L178.56,13.59c1.83-7.94,9.75-12.89,17.69-11.05l167.35,38.63c7.94,1.83,12.89,9.75,11.05,17.69l-64.91,281.17c-1.83,7.94-9.75,12.89-17.69,11.05Z"/><path class="cls-40" d="M291.29,350.36l-165.6-38.23c-8.16-1.88-13.24-10.02-11.36-18.18L178.83,14.62c1.88-8.16,10.02-13.24,18.18-11.36l165.6,38.23c8.16,1.88,13.24,10.02,11.36,18.18l-64.49,279.34c-1.88,8.16-10.02,13.24-18.18,11.36Z"/><path class="cls-28" d="M290.54,349.63l-163.85-37.83c-8.37-1.93-13.59-10.29-11.66-18.66L179.1,15.64c1.93-8.37,10.29-13.59,18.66-11.66l163.85,37.83c8.37,1.93,13.59,10.29,11.66,18.66l-64.07,277.5c-1.93,8.37-10.29,13.59-18.66,11.66Z"/><path class="cls-23" d="M289.79,348.91l-162.11-37.43c-8.59-1.98-13.95-10.55-11.96-19.14L179.36,16.67c1.98-8.59,10.55-13.95,19.14-11.96l162.11,37.43c8.59,1.98,13.95,10.55,11.96,19.14l-63.64,275.66c-1.98,8.59-10.55,13.95-19.14,11.96Z"/><path class="cls-12" d="M289.04,348.18l-160.36-37.02c-8.81-2.03-14.3-10.82-12.26-19.63L179.63,17.7c2.03-8.81,10.82-14.3,19.63-12.26l160.36,37.02c8.81,2.03,14.3,10.82,12.26,19.63l-63.22,273.82c-2.03,8.81-10.82,14.3-19.63,12.26Z"/><path class="cls-30" d="M288.29,347.45l-158.62-36.62c-9.02-2.08-14.65-11.09-12.57-20.11L179.9,18.73c2.08-9.02,11.09-14.65,20.11-12.57l158.62,36.62c9.02,2.08,14.65,11.09,12.57,20.11l-62.79,271.99c-2.08,9.02-11.09,14.65-20.11,12.57Z"/><path class="cls-10" d="M287.54,346.72l-156.87-36.22c-9.24-2.13-15-11.35-12.87-20.6L180.17,19.76c2.13-9.24,11.35-15,20.6-12.87l156.87,36.22c9.24,2.13,15,11.35,12.87,20.6l-62.37,270.15c-2.13,9.24-11.35,15-20.6,12.87Z"/><path class="cls-25" d="M286.79,346l-155.12-35.81c-9.46-2.18-15.36-11.62-13.17-21.08L180.43,20.79c2.18-9.46,11.62-15.36,21.08-13.17l155.12,35.81c9.46,2.18,15.36,11.62,13.17,21.08l-61.94,268.31c-2.18,9.46-11.62,15.36-21.08,13.17Z"/><path class="cls-18" d="M286.03,345.27l-153.38-35.41c-9.68-2.23-15.71-11.89-13.47-21.56L180.7,21.82c2.23-9.68,11.89-15.71,21.56-13.47l153.38,35.41c9.68,2.23,15.71,11.89,13.47,21.56l-61.52,266.47c-2.23,9.68-11.89,15.71-21.56,13.47Z"/><path class="cls-43" d="M285.28,344.54l-151.63-35.01c-9.89-2.28-16.06-12.16-13.78-22.05L180.97,22.85c2.28-9.89,12.15-16.06,22.05-13.78l151.63,35.01c9.89,2.28,16.06,12.16,13.78,22.05l-61.1,264.64c-2.28,9.89-12.15,16.06-22.05,13.78Z"/><path class="cls-1" d="M284.53,343.82l-149.89-34.6c-10.11-2.33-16.41-12.42-14.08-22.53L181.24,23.88c2.33-10.11,12.42-16.41,22.53-14.08l149.89,34.6c10.11,2.33,16.41,12.42,14.08,22.53l-60.67,262.8c-2.33,10.11-12.42,16.41-22.53,14.08Z"/><path class="cls-22" d="M283.78,343.09l-148.14-34.2c-10.33-2.38-16.77-12.69-14.38-23.02L181.5,24.91c2.38-10.33,12.69-16.77,23.02-14.38l148.14,34.2c10.33,2.38,16.77,12.69,14.38,23.02l-60.25,260.96c-2.38,10.33-12.69,16.77-23.02,14.38Z"/><path class="cls-11" d="M283.03,342.36l-146.4-33.8c-10.54-2.43-17.12-12.96-14.68-23.5L181.77,25.94c2.43-10.54,12.96-17.12,23.5-14.68l146.4,33.8c10.54,2.43,17.12,12.96,14.68,23.5l-59.82,259.12c-2.43,10.54-12.96,17.12-23.5,14.68Z"/><path class="cls-13" d="M282.28,341.64l-144.65-33.4c-10.76-2.48-17.47-13.22-14.99-23.98L182.04,26.97c2.48-10.76,13.22-17.47,23.98-14.99l144.65,33.4c10.76,2.48,17.47,13.22,14.99,23.98l-59.4,257.29c-2.48,10.76-13.22,17.47-23.98,14.99Z"/><path class="cls-35" d="M281.52,340.91l-142.9-32.99c-10.98-2.53-17.82-13.49-15.29-24.47L182.31,28c2.53-10.98,13.49-17.82,24.47-15.29l142.9,32.99c10.98,2.53,17.82,13.49,15.29,24.47l-58.98,255.45c-2.53,10.98-13.49,17.82-24.47,15.29Z"/><path class="cls-14" d="M280.77,340.18l-141.16-32.59c-11.2-2.58-18.18-13.76-15.59-24.95L182.57,29.03c2.58-11.2,13.76-18.18,24.95-15.59l141.16,32.59c11.2,2.58,18.18,13.76,15.59,24.95l-58.55,253.61c-2.58,11.2-13.76,18.18-24.95,15.59Z"/><path class="cls-2" d="M280.02,339.45l-139.41-32.19c-11.41-2.63-18.53-14.02-15.89-25.44L182.84,30.06c2.63-11.41,14.02-18.53,25.44-15.89l139.41,32.19c11.41,2.63,18.53,14.02,15.89,25.44l-58.13,251.77c-2.63,11.41-14.02,18.53-25.44,15.89Z"/><path class="cls-16" d="M279.27,338.73l-137.67-31.78c-11.63-2.68-18.88-14.29-16.2-25.92L183.11,31.09c2.68-11.63,14.29-18.88,25.92-16.2l137.67,31.78c11.63,2.69,18.88,14.29,16.2,25.92l-57.7,249.94c-2.68,11.63-14.29,18.88-25.92,16.2Z"/><path class="cls-36" d="M278.52,338l-135.92-31.38c-11.85-2.74-19.23-14.56-16.5-26.4L183.38,32.12c2.74-11.85,14.56-19.23,26.4-16.5l135.92,31.38c11.85,2.74,19.23,14.56,16.5,26.4l-57.28,248.1c-2.74,11.85-14.56,19.23-26.4,16.5Z"/><path class="cls-42" d="M277.77,337.27l-134.18-30.98c-12.06-2.79-19.59-14.82-16.8-26.89L183.64,33.15c2.79-12.06,14.82-19.59,26.89-16.8l134.18,30.98c12.06,2.79,19.59,14.82,16.8,26.89l-56.85,246.26c-2.79,12.06-14.82,19.59-26.89,16.8Z"/><path class="cls-50" d="M277.01,336.55l-132.43-30.57c-12.28-2.84-19.94-15.09-17.1-27.37L183.91,34.18c2.84-12.28,15.09-19.94,27.37-17.1l132.43,30.57c12.28,2.84,19.94,15.09,17.1,27.37l-56.43,244.42c-2.84,12.28-15.09,19.94-27.37,17.1Z"/><path class="cls-8" d="M276.26,335.82l-130.68-30.17c-12.5-2.89-20.29-15.36-17.41-27.86L184.18,35.21c2.89-12.5,15.36-20.29,27.86-17.41l130.68,30.17c12.5,2.89,20.29,15.36,17.41,27.86l-56.01,242.59c-2.89,12.5-15.36,20.29-27.86,17.41Z"/><path class="cls-15" d="M275.51,335.09l-128.94-29.77c-12.72-2.94-20.64-15.62-17.71-28.34L184.45,36.24c2.94-12.72,15.62-20.64,28.34-17.71l128.94,29.77c12.72,2.94,20.64,15.62,17.71,28.34l-55.58,240.75c-2.94,12.72-15.62,20.64-28.34,17.71Z"/><path class="cls-34" d="M274.76,334.36l-127.19-29.36c-12.93-2.99-21-15.89-18.01-28.82L184.71,37.26c2.99-12.93,15.89-21,28.82-18.01l127.19,29.36c12.93,2.99,21,15.89,18.01,28.82l-55.16,238.91c-2.99,12.93-15.89,21-28.82,18.01Z"/><path class="cls-5" d="M274.01,333.64l-125.45-28.96c-13.15-3.04-21.35-16.16-18.31-29.31L184.98,38.29c3.04-13.15,16.16-21.35,29.31-18.31l125.45,28.96c13.15,3.04,21.35,16.16,18.31,29.31l-54.73,237.07c-3.04,13.15-16.16,21.35-29.31,18.31Z"/><path class="cls-47" d="M273.26,332.91l-123.7-28.56c-13.37-3.09-21.7-16.42-18.62-29.79L185.25,39.32c3.09-13.37,16.42-21.7,29.79-18.62l123.7,28.56c13.37,3.09,21.7,16.42,18.62,29.79l-54.31,235.24c-3.09,13.37-16.42,21.7-29.79,18.62Z"/><path class="cls-24" d="M272.51,332.18l-121.95-28.16c-13.58-3.14-22.05-16.69-18.92-30.28L185.52,40.35c3.14-13.58,16.69-22.05,30.28-18.92l121.95,28.16c13.58,3.14,22.05,16.69,18.92,30.28l-53.88,233.4c-3.14,13.58-16.69,22.06-30.28,18.92Z"/><path class="cls-33" d="M271.75,331.46l-120.21-27.75c-13.8-3.19-22.41-16.96-19.22-30.76L185.78,41.38c3.19-13.8,16.96-22.41,30.76-19.22l120.21,27.75c13.8,3.19,22.41,16.96,19.22,30.76l-53.46,231.56c-3.19,13.8-16.96,22.41-30.76,19.22Z"/><path class="cls-20" d="M271,330.73l-118.46-27.35c-14.02-3.24-22.76-17.23-19.52-31.24L186.05,42.41c3.24-14.02,17.23-22.76,31.24-19.52l118.46,27.35c14.02,3.24,22.76,17.23,19.52,31.24l-53.04,229.72c-3.24,14.02-17.23,22.76-31.24,19.52Z"/><path class="cls-27" d="M270.25,330l-116.72-26.95c-14.24-3.29-23.11-17.49-19.83-31.73L186.32,43.44c3.29-14.24,17.49-23.11,31.73-19.83l116.72,26.95c14.24,3.29,23.11,17.49,19.83,31.73l-52.61,227.89c-3.29,14.24-17.49,23.11-31.73,19.83Z"/><path class="cls-29" d="M269.5,329.28l-114.97-26.54c-14.45-3.34-23.47-17.76-20.13-32.21L186.59,44.47c3.34-14.45,17.76-23.47,32.21-20.13l114.97,26.54c14.45,3.34,23.47,17.76,20.13,32.21l-52.19,226.05c-3.34,14.45-17.76,23.47-32.21,20.13Z"/><path class="cls-32" d="M268.75,328.55l-113.23-26.14c-14.67-3.39-23.82-18.03-20.43-32.7L186.85,45.5c3.39-14.67,18.03-23.82,32.7-20.43l113.23,26.14c14.67,3.39,23.82,18.03,20.43,32.7l-51.76,224.21c-3.39,14.67-18.03,23.82-32.7,20.43Z"/><path class="cls-45" d="M268,327.82l-111.48-25.74c-14.89-3.44-24.17-18.29-20.73-33.18L187.12,46.53c3.44-14.89,18.29-24.17,33.18-20.73l111.48,25.74c14.89,3.44,24.17,18.29,20.73,33.18l-51.34,222.37c-3.44,14.89-18.29,24.17-33.18,20.73Z"/><path class="cls-6" d="M267.24,327.09l-109.73-25.33c-15.11-3.49-24.52-18.56-21.04-33.66L187.39,47.56c3.49-15.11,18.56-24.52,33.66-21.04l109.73,25.33c15.11,3.49,24.52,18.56,21.04,33.66l-50.91,220.54c-3.49,15.11-18.56,24.52-33.66,21.04Z"/><path class="cls-46" d="M266.49,326.37l-107.99-24.93c-15.32-3.54-24.88-18.83-21.34-34.15L187.66,48.59c3.54-15.32,18.83-24.88,34.15-21.34l107.99,24.93c15.32,3.54,24.88,18.83,21.34,34.15l-50.49,218.7c-3.54,15.32-18.83,24.88-34.15,21.34Z"/><path class="cls-19" d="M265.74,325.64l-106.24-24.53c-15.54-3.59-25.23-19.09-21.64-34.63L187.92,49.62c3.59-15.54,19.09-25.23,34.63-21.64l106.24,24.53c15.54,3.59,25.23,19.09,21.64,34.63l-50.07,216.86c-3.59,15.54-19.09,25.23-34.63,21.64Z"/><path class="cls-41" d="M264.99,324.91l-104.5-24.12c-15.76-3.64-25.58-19.36-21.94-35.12L188.19,50.65c3.64-15.76,19.36-25.58,35.12-21.94l104.5,24.12c15.76,3.64,25.58,19.36,21.94,35.12l-49.64,215.02c-3.64,15.76-19.36,25.58-35.12,21.94Z"/><path class="cls-44" d="M264.24,324.19l-102.75-23.72c-15.97-3.69-25.93-19.63-22.25-35.6L188.46,51.68c3.69-15.97,19.63-25.93,35.6-22.25l102.75,23.72c15.97,3.69,25.93,19.63,22.25,35.6l-49.22,213.19c-3.69,15.97-19.63,25.93-35.6,22.25Z"/><path class="cls-39" d="M263.49,323.46l-101-23.32c-16.19-3.74-26.29-19.89-22.55-36.08L188.73,52.71c3.74-16.19,19.89-26.29,36.08-22.55l101,23.32c16.19,3.74,26.29,19.89,22.55,36.08l-48.79,211.35c-3.74,16.19-19.89,26.29-36.08,22.55Z"/></g><g><path class="cls-3" d="M290.07,338.36l-158.01-36.48c-6.67-1.54-10.83-8.2-9.29-14.87L183.36,24.54c1.54-6.67,8.2-10.83,14.87-9.29l158.01,36.48c6.67,1.54,10.83,8.2,9.29,14.87l-60.6,262.47c-1.54,6.67-8.2,10.83-14.87,9.29Z"/><path class="cls-49" d="M201.64,45.17l-7.74-1.79c-.56,.91-1.04,1.73-1.45,2.43-.41,.71-.75,1.32-1.02,1.84-.27,.52-.48,.97-.63,1.34-.15,.37-.25,.68-.3,.92-.16,.68-.09,1.18,.2,1.52,.29,.33,.84,.59,1.65,.78l-.32,1.38-7.05-1.63,.32-1.38c.46,.03,.87,.02,1.21-.03,.35-.05,.67-.15,.96-.31,.29-.16,.57-.4,.83-.7,.26-.31,.54-.7,.83-1.16l12.98-21.85,1.25,.29,1.86,21.96c.13,1.46,.27,2.63,.41,3.51,.14,.89,.32,1.57,.53,2.05,.21,.48,.49,.82,.82,1.03,.33,.2,.75,.36,1.25,.48l-.33,1.41-9.45-2.18,.33-1.41c1.02,.24,1.76,.28,2.2,.13,.44-.15,.73-.51,.86-1.06,.06-.24,.1-.47,.13-.68,.03-.21,.05-.44,.05-.69,0-.25,0-.54-.01-.86-.02-.32-.05-.7-.09-1.15l-.29-4.19Zm-6.74-3.46l6.61,1.53-.75-11.43-5.86,9.91Z"/><path class="cls-49" d="M292.1,307.95c.23-.38,.42-.71,.58-.99,.16-.28,.29-.54,.39-.77,.1-.23,.19-.45,.26-.65,.07-.2,.13-.42,.18-.66,.13-.56,.03-1-.3-1.33-.33-.33-1.01-.61-2.03-.85l.33-1.41,9.45,2.18-.33,1.41c-.5-.12-.95-.16-1.33-.12-.39,.04-.78,.23-1.18,.57-.4,.34-.86,.88-1.38,1.61-.52,.73-1.15,1.72-1.91,2.98l-11.3,18.92-1.25-.29-2.09-25.33c-.06-.55-.14-1.02-.24-1.41-.1-.39-.25-.73-.44-1-.19-.27-.43-.51-.72-.7-.29-.19-.65-.38-1.08-.55l.32-1.38,7.05,1.63-.32,1.38c-.81-.19-1.42-.19-1.83-.02-.41,.17-.69,.6-.84,1.27-.06,.24-.1,.56-.13,.96-.03,.4-.04,.89-.02,1.48,.02,.59,.05,1.29,.11,2.11,.06,.81,.13,1.75,.23,2.82l7.74,1.79,2.09-3.64Zm-8.75,15.27l5.69-9.95-6.61-1.53,.92,11.47Z"/><g><path class="cls-49" d="M215.68,203.52c8.96,2.07,18.42-1.75,24.85-10.99,1.72,11.12,8.55,18.7,17.51,20.77,11.36,2.62,23.58-6.36,26.08-17.34,1.55-6.77-.11-13.95-3.17-20.19-3.05-6.24-7.43-11.72-11.66-17.23-5.96-7.75-12.19-16.75-14.85-26.29-6.58,7.4-16.12,12.76-24.87,17.12-6.22,3.1-12.55,6.1-18.03,10.37-5.48,4.27-10.12,10-11.7,16.76-2.56,10.96,4.48,24.39,15.84,27.02Z"/><path class="cls-49" d="M240.76,191.51c-4.4,10.12-14.42,20.53-24.21,25.72l.52,.27c5.4-1.55,11.54-1.77,17.76-.33,6.17,1.42,11.54,4.27,15.7,7.98l.63-.02c-6.48-8.95-10.89-22.64-10.41-33.62Z"/></g><g><path class="cls-49" d="M182.14,83.7c3.05,.7,6.28-.6,8.46-3.75,.59,3.79,2.91,6.37,5.97,7.08,3.87,.89,8.03-2.17,8.89-5.91,.53-2.31-.04-4.75-1.08-6.88-1.04-2.13-2.53-3.99-3.97-5.87-2.03-2.64-4.15-5.71-5.06-8.96-2.24,2.52-5.49,4.35-8.47,5.83-2.12,1.05-4.28,2.08-6.14,3.53-1.87,1.45-3.45,3.41-3.98,5.71-.87,3.73,1.53,8.31,5.4,9.2Z"/><path class="cls-49" d="M190.68,79.61c-1.5,3.45-4.91,6.99-8.25,8.76l.18,.09c1.84-.53,3.93-.6,6.05-.11,2.1,.49,3.93,1.46,5.35,2.72h.22c-2.21-3.06-3.71-7.72-3.55-11.46Z"/></g><g><path class="cls-49" d="M289.49,267.87c3.05,.7,5.38,3.29,5.97,7.08,2.19-3.15,5.41-4.45,8.46-3.75,3.87,.89,6.27,5.47,5.4,9.2-.54,2.3-2.12,4.26-3.98,5.71-1.87,1.45-4.02,2.48-6.14,3.53-2.98,1.48-6.23,3.31-8.47,5.83-.91-3.25-3.03-6.32-5.06-8.96-1.44-1.88-2.93-3.74-3.97-5.87-1.04-2.13-1.61-4.57-1.08-6.88,.85-3.74,5.01-6.8,8.89-5.91Z"/><path class="cls-49" d="M295.38,275.29c.16-3.76-1.35-8.44-3.57-11.49h.2c1.42,1.27,3.27,2.26,5.39,2.75,2.1,.49,4.17,.42,6-.1l.19,.1c-3.32,1.77-6.72,5.3-8.21,8.74Z"/></g></g></g></g></g></g></svg>